<svg width="55" height="14" viewBox="0 0 55 14" fill="none" xmlns="http://www.w3.org/2000/svg">
<path d="M41.9925 0L45.5652 3.81418H51.4227V10.066L55 13.8802V0H41.9925ZM4.58333 0.936431L0 13.0636H2.99979L3.84771 10.6626H8.9375L9.8725 13.0636H12.9388L7.865 0.936431H4.58333ZM14.229 0.936431V13.0513H17.066V5.49144L20.1323 9.31051H20.5631L23.6294 5.50611V13.0636H26.4665V0.936431H23.9938L20.3454 5.44743L16.6994 0.936431H14.229ZM28.6275 0.936431V13.0636H33.3415C37.8767 13.0636 39.9415 10.5061 39.9415 7.01956C39.9415 3.69438 37.7942 0.936431 33.6463 0.936431H28.6275ZM31.4623 3.16137H33.2773C35.9585 3.16137 37.0127 4.89976 37.0127 7C37.0127 8.77995 36.1602 10.8435 33.3094 10.8435H31.4623V3.16137ZM6.28833 3.82885L8.10104 8.55257H4.60167L6.28833 3.82885ZM45.5606 4.57946L41.8848 8.49878V14H47.0319L50.7077 10.0709H45.5606V4.57946Z" fill="#ED1C24"/>
</svg>
