<svg width="21" height="27" viewBox="0 0 21 27" fill="none" xmlns="http://www.w3.org/2000/svg">
<g clip-path="url(#clip0_561_1002)">
<path d="M11.5868 2.34961C13.2793 0.0113992 15.6323 0 15.6323 0C15.6323 0 15.9823 2.19831 14.3009 4.31599C12.5055 6.57719 10.4649 6.20719 10.4649 6.20719C10.4649 6.20719 10.0817 4.42883 11.5868 2.34961ZM10.6802 7.7471C11.5509 7.7471 13.1669 6.49257 15.2703 6.49257C18.891 6.49257 20.3154 9.19302 20.3154 9.19302C20.3154 9.19302 17.5296 10.686 17.5296 14.3085C17.5296 18.395 21 19.8034 21 19.8034C21 19.8034 18.5741 26.9603 15.2973 26.9603C13.7923 26.9603 12.6222 25.8973 11.0365 25.8973C9.42047 25.8973 7.81683 27 6.77236 27C3.78017 27.0001 0 20.211 0 14.7536C0 9.38441 3.19967 6.56779 6.20083 6.56779C8.15185 6.56779 9.66587 7.7471 10.6802 7.7471Z" fill="#999999"/>
</g>
<defs>
<clipPath id="clip0_561_1002">
<rect width="21" height="27" fill="white"/>
</clipPath>
</defs>
</svg>
