<svg width="62" height="13" viewBox="0 0 62 13" fill="none" xmlns="http://www.w3.org/2000/svg">
<path d="M61.6145 3.26322V0H49.6133C47.1078 0 45.9789 1.54655 45.7933 3.0467V3.0931V0H42.2672V3.26322H45.7778H61.6145ZM45.7778 4.43859L42.2517 4.23754V7.99565C42.2517 9.17103 41.664 9.52673 39.6226 9.52673H36.8078C35.1221 9.52673 34.4107 9.0473 34.4107 7.99565V3.88183L30.8382 3.61892V8.2895H30.7608C30.5598 6.92853 30.0494 5.35106 26.647 5.11907L15.4655 4.37673C15.4655 6.0934 16.6873 7.11412 18.605 7.31517L26.3996 8.10391C27.0182 8.15031 27.4667 8.33589 27.4667 8.84625C27.4667 9.40301 27.0027 9.46487 26.2913 9.46487H15.3263V4.37673L11.7538 4.14475V12.7745H26.3068C29.5545 12.7745 30.5907 11.0887 30.7454 9.68139H30.8227C31.2248 11.9084 33.1735 12.7745 36.4676 12.7745H40.102C43.9529 12.7745 45.7778 11.5991 45.7778 8.84625V4.43859ZM57.114 5.10361L45.9325 4.43859C45.9325 6.15526 47.0615 7.2997 48.9792 7.45436L56.9439 8.07298C57.5625 8.11938 57.9337 8.27403 57.9337 8.78439C57.9337 9.26382 57.5006 9.44941 56.6036 9.44941H45.7469V12.7745H56.8356C60.3308 12.7745 61.8619 11.5527 61.8619 8.76892C61.8619 6.26352 60.4855 5.32012 57.114 5.10361ZM30.8382 0H34.4107V3.26322H30.8382V0ZM9.78965 3.99009L5.90781 3.60346L0 12.7745H4.3458L9.78965 3.99009ZM30.1886 0H19.2855C16.7491 0 15.6356 1.57748 15.3727 3.0931V0H9.32568C8.47508 0 8.07298 0.262913 7.67088 0.850601L6.00061 3.26322H30.1886V0Z" fill="black"/>
</svg>
