<svg width="29" height="29" viewBox="0 0 29 29" fill="none" xmlns="http://www.w3.org/2000/svg">
<path d="M14.4796 0C13.9092 0 13.3621 0.226605 12.9587 0.629964C12.5554 1.03332 12.3288 1.5804 12.3288 2.15083C12.3288 2.72127 12.5554 3.26834 12.9587 3.6717C13.3621 4.07506 13.9092 4.30167 14.4796 4.30167C15.05 4.30167 15.5971 4.07506 16.0005 3.6717C16.4038 3.26834 16.6304 2.72127 16.6304 2.15083C16.6304 1.5804 16.4038 1.03332 16.0005 0.629964C15.5971 0.226605 15.05 0 14.4796 0ZM6.24724 7.23913C6.07745 7.22768 5.90713 7.25131 5.74688 7.30855C5.58662 7.36578 5.43987 7.45539 5.31575 7.5718C5.19163 7.68822 5.0928 7.82893 5.02543 7.9852C4.95805 8.14146 4.92356 8.30992 4.92411 8.48008C4.92411 8.85225 5.08845 9.22442 5.37845 9.47333L12.8242 18.0356L5.08965 26.8057C4.96688 26.9311 4.87057 27.0799 4.80643 27.2432C4.74229 27.4066 4.71163 27.5812 4.71628 27.7566C4.71628 28.4599 5.29628 28.9976 5.99953 28.9976C6.41278 28.9976 6.82603 28.7922 7.07495 28.4611L14.4796 19.7732L21.9254 28.4611C22.1731 28.7922 22.5863 28.9976 23.0008 28.9976C23.704 29.0399 24.284 28.4599 24.284 27.7566C24.2861 27.4035 24.1524 27.0631 23.9107 26.8057L16.1749 18.0356L23.6207 9.47333C23.9107 9.22442 24.0762 8.85225 24.0762 8.48008V8.439C24.0762 7.73575 23.4563 7.19804 22.7531 7.23913C22.3386 7.23913 21.9677 7.44575 21.7187 7.77683L14.5207 16.2569L7.32265 7.77683C7.20452 7.61264 7.0495 7.47845 6.87007 7.38506C6.69064 7.29167 6.49179 7.24169 6.28953 7.23913H6.24724Z" fill="black"/>
</svg>
