<svg width="30" height="30" viewBox="0 0 30 30" fill="none" xmlns="http://www.w3.org/2000/svg">
<g clip-path="url(#clip0_561_1009)">
<path d="M28.2112 26.8358C28.3036 26.9246 28.3766 27.0316 28.4255 27.1501C28.4744 27.2686 28.4982 27.3959 28.4953 27.524C28.4964 27.7171 28.4401 27.9061 28.3335 28.067C28.2269 28.2279 28.0748 28.3535 27.8966 28.4278C27.7184 28.502 27.5221 28.5215 27.3328 28.4839C27.1435 28.4463 26.9696 28.3532 26.8333 28.2164C26.7422 28.1259 26.6701 28.0179 26.6215 27.899C26.5729 27.78 26.5486 27.6525 26.5501 27.524C26.5499 27.2659 26.6519 27.0181 26.8339 26.835C27.0159 26.6519 27.263 26.5483 27.5212 26.5469C27.65 26.5445 27.7779 26.5689 27.8967 26.6187C28.0155 26.6684 28.1226 26.7424 28.2112 26.8358ZM28.3255 26.7233C28.221 26.6166 28.0957 26.5323 27.9575 26.4755C27.8193 26.4188 27.6709 26.3908 27.5215 26.3933C27.3354 26.3936 27.1522 26.4398 26.9881 26.5278C26.8241 26.6159 26.6843 26.743 26.5812 26.8979C26.478 27.0529 26.4147 27.2309 26.3968 27.4162C26.379 27.6015 26.4071 27.7883 26.4786 27.9602C26.5502 28.132 26.6631 28.2835 26.8073 28.4013C26.9514 28.5191 27.1224 28.5994 27.3051 28.6353C27.4878 28.6712 27.6764 28.6615 27.8544 28.607C28.0324 28.5525 28.1942 28.4549 28.3255 28.3229C28.4307 28.2179 28.5142 28.0931 28.5711 27.9558C28.628 27.8184 28.6573 27.6712 28.6573 27.5225C28.6573 27.3739 28.628 27.2267 28.5711 27.0893C28.5142 26.952 28.4307 26.8272 28.3255 26.7221V26.7233ZM27.6901 27.4694C27.6232 27.4916 27.5526 27.5009 27.4822 27.497H27.286V27.047H27.4729C27.5929 27.047 27.6829 27.0641 27.736 27.0944C27.7891 27.1247 27.8188 27.1865 27.8188 27.2744C27.8219 27.3166 27.811 27.3586 27.7877 27.3939C27.7644 27.4291 27.7301 27.4557 27.6901 27.4694ZM27.0676 28.1381H27.286V27.6497H27.4591C27.5737 27.6497 27.6559 27.6617 27.7024 27.6905C27.7795 27.7367 27.8188 27.8321 27.8188 27.9749V28.0748L27.823 28.1123C27.8246 28.1172 27.8257 28.1223 27.8263 28.1273C27.8263 28.1333 27.8281 28.1354 27.832 28.1381H28.0348L28.0276 28.1237C28.019 28.1038 28.0154 28.0821 28.0171 28.0604C28.0144 28.0262 28.0144 27.9959 28.0144 27.9683V27.8762C28.0118 27.8066 27.9882 27.7393 27.9466 27.6833C27.9004 27.617 27.8281 27.578 27.7309 27.5609C27.7941 27.5524 27.8552 27.532 27.9109 27.5009C27.994 27.4484 28.0327 27.3641 28.0327 27.2549C28.0327 27.0995 27.9709 26.993 27.8407 26.9402C27.769 26.9102 27.6565 26.8955 27.5017 26.8955H27.0676V28.1381Z" fill="#E4002B"/>
<path d="M28.7577 18.6092C28.8381 17.009 28.5426 15.2852 27.1503 13.7255C25.7193 12.1832 23.3052 10.8755 18.3387 10.5689C18.5967 9.76405 18.8223 9.02665 19.0605 8.27335C22.0305 8.37775 24.6723 8.59165 26.9205 8.88355C27.0981 8.07805 27.1944 7.29055 27.3783 6.53065C27.1501 6.19685 26.9083 5.87245 26.6529 5.55745C25.5834 5.43385 24.5169 5.16745 23.3691 5.02045C21.8172 4.82005 20.1927 4.67695 18.4377 4.59595C17.3325 7.88785 15.951 12.0299 14.5338 16.3109C21.9216 16.9499 24.7626 18.941 24.603 21.7499C24.4557 23.267 23.0688 24.6464 21.2451 24.8099C19.0758 24.9557 18.0828 24.0794 17.4309 23.1179C16.8567 22.2545 16.284 21.3893 15.6726 20.4479C15.5064 20.171 15.2871 20.351 15.0894 20.5442C14.6418 20.9786 14.2164 21.3887 13.7742 21.8126C13.4898 22.0598 13.5531 22.2722 13.6542 22.4795C14.0673 23.4533 14.4519 24.3461 14.8404 25.2323C15.4872 25.6286 18.5274 26.1698 20.8011 25.9997C22.3419 25.8701 24.2682 25.2743 25.8606 24.0749C27.4335 22.8536 28.5801 21.2099 28.7577 18.6092Z" fill="white"/>
<path d="M2.91944 23.889C3.20384 24.2748 3.50584 24.6461 3.82544 25.0029C6.38114 25.4625 9.56804 25.7802 12.8869 25.8768C12.8758 25.5324 12.8659 25.1979 12.8569 24.843C10.8187 24.7281 9.88184 24.4173 9.71894 24.0141C9.58304 23.6937 9.55934 23.2152 9.53024 22.7427C9.37724 19.6122 9.32714 16.2261 9.38024 12.8274C10.5202 12.8076 11.6551 12.7974 12.8461 12.7845C13.4233 12.5214 13.9663 12.2613 14.5423 12.0045C14.5423 11.5929 14.545 11.2245 14.545 10.8228C12.7801 10.83 11.1055 10.86 9.42704 10.9065C9.47444 9.4779 9.53054 8.1591 9.61424 6.8727C9.67424 6.0273 10.2595 5.4093 10.8634 5.361C11.8312 5.3232 12.7003 5.7078 13.5415 6.081C14.0053 6.3057 14.4625 6.5292 14.9377 6.7725C15.1645 6.8325 15.4339 6.8859 15.5962 6.6888C15.8779 6.3552 16.1455 6.0453 16.4227 5.721C16.5727 5.4993 16.5079 5.3721 16.4464 5.2905C15.8428 4.8138 15.2749 4.3851 14.7001 3.9543C14.3452 3.7143 13.7848 3.6615 13.2325 3.6615C13.0123 3.6615 12.7912 3.6696 12.586 3.6762C12.0184 3.7062 11.296 3.7962 10.1131 4.0848C7.44884 4.8024 4.25024 6.66 3.91214 9.6981C3.86864 10.194 3.83234 10.6851 3.80024 11.1924C3.04784 11.2557 2.36294 11.31 1.71644 11.3724C1.66904 11.9532 1.63724 12.5124 1.61084 13.1001C2.26544 13.0617 2.94824 13.0275 3.70904 12.9945C3.59624 16.1793 3.70304 19.3575 4.00214 22.3011C4.05224 22.7484 4.10114 23.1918 4.04294 23.4783C3.99524 23.7519 3.55484 23.8938 2.91944 23.889Z" fill="white"/>
<path d="M27.3798 6.5307C27.1959 7.2906 27.0996 8.0781 26.922 8.8836C24.672 8.5917 22.0296 8.3778 19.062 8.2734C18.8238 9.0267 18.5982 9.7641 18.3402 10.569C23.3067 10.8744 25.7202 12.1833 27.1518 13.7256C28.5441 15.2856 28.8396 17.0091 28.7592 18.6093C28.5801 21.21 27.4335 22.8537 25.86 24.0723C24.2676 25.2723 22.3413 25.8675 20.8005 25.9971C18.5268 26.1672 15.4866 25.626 14.8398 25.23C14.4498 24.3438 14.0667 23.451 13.6536 22.4772C13.5531 22.2699 13.4898 22.0572 13.7736 21.8103C14.2158 21.3864 14.6412 20.9763 15.0888 20.5419C15.2865 20.3487 15.5058 20.1687 15.672 20.4456C16.2834 21.3885 16.8564 22.2537 17.4303 23.1156C18.0822 24.0771 19.0752 24.9534 21.2445 24.8076C23.0682 24.6444 24.4545 23.265 24.6024 21.7476C24.762 18.9396 21.921 16.9476 14.5332 16.3095C15.951 12.03 17.3325 7.8879 18.4377 4.596C20.1927 4.677 21.8172 4.8201 23.3691 5.0205C24.5169 5.1666 25.5834 5.4339 26.6529 5.5575C23.9031 2.1678 19.7064 0 15 0C6.71611 0 1.46017e-05 6.7158 1.46017e-05 15C-0.00445853 18.1993 1.01891 21.3153 2.91931 23.889C3.55471 23.8938 3.99511 23.7519 4.04281 23.478C4.10101 23.1915 4.05211 22.7481 4.00201 22.3008C3.70201 19.3572 3.59611 16.179 3.70891 12.9942C2.94811 13.0272 2.26531 13.0614 1.61071 13.0998C1.63711 12.5109 1.66891 11.9529 1.71631 11.3721C2.36281 11.31 3.04771 11.2557 3.80011 11.1921C3.83221 10.6848 3.86851 10.1937 3.91231 9.6978C4.25011 6.66 7.44872 4.8024 10.113 4.0854C11.2953 3.7974 12.0183 3.7065 12.5859 3.6768C12.7911 3.6702 13.0122 3.6621 13.2324 3.6621C13.7847 3.6621 14.3451 3.7137 14.7 3.9549C15.2748 4.3857 15.8427 4.8144 16.4466 5.2911C16.5066 5.3727 16.5726 5.5011 16.4226 5.7216C16.1454 6.0459 15.8778 6.3558 15.5961 6.6894C15.4338 6.8865 15.1644 6.8346 14.9376 6.7731C14.4624 6.5298 14.0052 6.3063 13.5414 6.0816C12.7014 5.7078 11.8314 5.3232 10.8633 5.3616C10.2594 5.4099 9.67472 6.0279 9.61412 6.8733C9.53042 8.1597 9.47432 9.4785 9.42692 10.9071C11.1054 10.86 12.78 10.83 14.5455 10.8222C14.5455 11.2239 14.5428 11.5923 14.5428 12.0039C13.9668 12.2613 13.4238 12.5214 12.8466 12.7839C11.6556 12.7977 10.5222 12.807 9.38072 12.8268C9.32792 16.2255 9.37802 19.6116 9.53072 22.7421C9.56072 23.2146 9.58352 23.6931 9.71942 24.0135C9.88232 24.4167 10.8192 24.7275 12.8574 24.8424C12.8655 25.1973 12.8754 25.5324 12.8874 25.8762C9.56851 25.7796 6.38161 25.4619 3.82741 25.0023C6.57211 28.0689 10.56 30 15 30C23.2845 30 30 23.2839 30 15C30.0044 11.9767 29.0907 9.02334 27.3798 6.5307Z" fill="#E4002B"/>
</g>
<defs>
<clipPath id="clip0_561_1009">
<rect width="30" height="30" fill="white"/>
</clipPath>
</defs>
</svg>
