<svg width="94" height="13" viewBox="0 0 94 13" fill="none" xmlns="http://www.w3.org/2000/svg">
<path d="M7.7274 11.2138L0.977434 8.06383C0.139261 7.67033 -0.228183 6.65537 0.146692 5.79225C0.315738 5.41396 0.60999 5.11104 0.970003 4.94435L7.71997 1.79443L8.55108 3.67993L2.51445 6.49648L8.55851 9.32083L7.7274 11.2138Z" fill="#009DEA"/>
<path d="M11.0876 6.4966C11.0876 8.47267 10.6024 10.4187 9.67578 12.1453L11.5212 12.9932C12.5581 10.9941 13.1024 8.76075 13.1024 6.4966C13.1024 4.23281 12.5581 1.9991 11.5212 0L9.67578 0.847898C10.6024 2.57451 11.0876 4.52052 11.0876 6.4966Z" fill="#009DEA"/>
<path d="M23.5363 3.11205H19.948C19.5289 3.11205 19.2347 3.19521 19.0731 3.36189C18.9037 3.52857 18.8966 3.80849 18.8966 4.21759V5.71663H22.4993L22.5068 7.5186H18.8966V11.7967H16.9111V3.43762C16.9111 2.66508 17.0731 2.12011 17.4038 1.80197C17.7348 1.48419 18.301 1.3175 19.095 1.3175H23.5363V3.11205Z" fill="black"/>
<path d="M32.3374 6.06475V6.85213C32.3374 8.59359 32.0212 9.85839 31.3815 10.6458C30.7421 11.4332 29.72 11.827 28.3156 11.827C26.9112 11.827 25.8962 11.4332 25.2638 10.6458C24.6389 9.85839 24.3228 8.57874 24.3228 6.81427V6.05732C24.3228 4.44431 24.6389 3.24819 25.2787 2.46044C25.9185 1.67305 26.9257 1.27954 28.3082 1.27954C29.6906 1.27954 30.7053 1.68084 31.3595 2.47566C32.0138 3.27084 32.3374 4.45953 32.3374 6.06475ZM30.4697 6.80684V6.2615C30.4697 5.32265 30.3598 4.58055 30.1316 4.02036C29.8667 3.37664 29.3009 3.05107 28.4259 3.05107C27.5436 3.05107 26.9699 3.37664 26.7054 4.02036C26.4847 4.55048 26.3818 5.29258 26.3818 6.2615V6.80684C26.3818 8.06384 26.5508 8.91917 26.8963 9.35833C27.0509 9.56289 27.2567 9.72957 27.4845 9.83537C27.7787 9.97198 28.1023 10.0399 28.4259 10.0325C28.7492 10.0399 29.0653 9.97941 29.3596 9.84317C29.5873 9.73699 29.7935 9.57811 29.9552 9.37356C30.1097 9.15416 30.2197 8.90432 30.2788 8.63925C30.4036 8.16222 30.4697 7.54894 30.4697 6.80684Z" fill="black"/>
<path d="M41.7929 11.7967H39.4549L37.4843 7.95032H36.0725V11.7967H34.0874V3.56642C34.0874 2.77866 34.2639 2.21104 34.6168 1.84761C34.9694 1.49159 35.5579 1.31006 36.3887 1.31006H38.0724C39.0797 1.31006 39.8885 1.62783 40.484 2.25633C41.08 2.88483 41.3813 3.69487 41.3813 4.66416C41.3813 5.36839 41.2048 5.98167 40.8444 6.49657C40.484 7.01147 40.043 7.36748 39.521 7.56424L41.7929 11.7967ZM38.9623 5.70918C39.2342 5.41368 39.3665 5.04282 39.3665 4.59585C39.3665 4.14926 39.2342 3.79361 38.9767 3.52076C38.7196 3.24827 38.3667 3.11203 37.9327 3.11203H36.9474C36.3593 3.11203 36.0651 3.42238 36.0651 4.03566V6.15578H37.9253C38.315 6.16357 38.6903 6.00431 38.9623 5.70918Z" fill="black"/>
<path d="M49.6899 11.7967H46.102C44.9548 11.7967 44.1534 11.5925 43.6901 11.1834C43.2268 10.7747 42.999 10.0552 42.999 9.02542V2.98321C42.999 2.05958 43.7269 1.31006 44.6241 1.31006H49.6899V3.11203H44.9915V5.59558H48.271L48.2636 7.39755H44.9841V8.92704C44.9841 9.33614 45.0725 9.61605 45.2564 9.76751C45.44 9.91898 45.7636 10.0025 46.2417 10.0025H49.6899V11.7967Z" fill="black"/>
<path d="M58.3665 8.67718C58.3665 9.6617 58.0139 10.4339 57.3151 10.9941C56.6166 11.5546 55.7197 11.8345 54.6315 11.8345C53.771 11.8345 52.9403 11.5925 52.1315 11.1077C51.7198 10.8426 51.3813 10.4717 51.1536 10.0326C50.8961 9.5481 50.7639 9.00276 50.7713 8.44999L52.558 8.35904C52.558 8.88173 52.7783 9.29826 53.2122 9.58596C53.6388 9.87367 54.1463 10.0251 54.6608 10.0251C55.8445 10.0251 56.433 9.59339 56.433 8.73769C56.433 8.03346 56.0284 7.62473 55.2271 7.49592L53.5801 7.32181C52.7564 7.19299 52.1021 6.89043 51.624 6.4134C51.1387 5.93636 50.9036 5.24735 50.9036 4.35379C50.9036 3.46023 51.2491 2.71813 51.9401 2.1353C52.6315 1.55209 53.5065 1.25696 54.5579 1.25696C55.6094 1.25696 56.4624 1.52944 57.1018 2.08221C57.749 2.63498 58.0652 3.33921 58.0652 4.20975L56.3078 4.30071C56.1462 3.45281 55.5945 3.02849 54.646 3.02849C54.0727 3.02849 53.6168 3.15731 53.2932 3.40715C52.9696 3.65699 52.8006 3.95991 52.8006 4.30813C52.8006 4.65672 52.9184 4.9292 53.1535 5.12596C53.4036 5.33051 53.7123 5.45933 54.0359 5.49719L55.6536 5.6713C57.4622 5.92114 58.3665 6.9205 58.3665 8.67718Z" fill="black"/>
<path d="M65.1605 7.70782H67.0063C67.0063 9.01011 66.6827 10.0098 66.0355 10.7063C65.3886 11.4031 64.4695 11.7513 63.2858 11.7513C60.6828 11.7513 59.3813 10.2144 59.3813 7.14763V6.28451C59.3813 3.86889 60.0505 2.3472 61.3813 1.74135C61.9033 1.49151 62.5431 1.37048 63.2858 1.37048C64.374 1.37048 65.256 1.66561 65.94 2.26367C66.624 2.8621 66.9621 3.72522 66.9621 4.8534H65.1018C64.9989 4.29321 64.8076 3.86146 64.543 3.57376C64.2781 3.28605 63.859 3.14201 63.2858 3.14201C62.6166 3.14201 62.124 3.35399 61.8004 3.77051C61.5723 4.06601 61.44 4.57312 61.4032 5.29257C61.3813 5.51977 61.3739 5.83012 61.3739 6.224V7.11719C61.3739 8.2153 61.5284 8.96482 61.8297 9.36612C62.1459 9.76743 62.6311 9.97198 63.2928 9.97198C63.9545 9.97198 64.4108 9.79007 64.6679 9.41921C64.9253 9.04797 65.0869 8.48036 65.1605 7.70782Z" fill="black"/>
<path d="M76.0723 6.06475V6.85213C76.0723 8.59359 75.7561 9.85839 75.1163 10.6458C74.4765 11.4332 73.4545 11.827 72.0501 11.827C70.6457 11.827 69.631 11.4332 68.9987 10.6458C68.3738 9.85839 68.0576 8.57874 68.0576 6.81427V6.05732C68.0576 4.44431 68.3738 3.24819 69.0132 2.46044C69.653 1.67305 70.6606 1.27954 72.0427 1.27954C73.4251 1.27954 74.4398 1.68084 75.094 2.47566C75.7487 3.26304 76.0723 4.45953 76.0723 6.06475ZM74.1455 6.80684V6.2615C74.1455 5.32265 74.0355 4.58055 73.8074 4.02036C73.5429 3.37664 72.9767 3.05107 72.1017 3.05107C71.2193 3.05107 70.6457 3.37664 70.3812 4.02036C70.1605 4.55048 70.0576 5.29258 70.0576 6.2615V6.80684C70.0576 8.06384 70.2266 8.91917 70.5721 9.35833C70.7267 9.56289 70.9325 9.72957 71.1603 9.83537C71.7558 10.093 72.4324 10.1004 73.0279 9.84317C73.2561 9.73699 73.4619 9.57811 73.6235 9.37356C73.7781 9.15416 73.8884 8.90432 73.9471 8.63925C74.0794 8.16222 74.1455 7.54894 74.1455 6.80684Z" fill="black"/>
<path d="M85.2925 1.3175V8.15489C85.2925 9.28307 84.925 10.1766 84.1823 10.8274C83.4396 11.4789 82.5279 11.8045 81.4397 11.8045C80.3515 11.8045 79.4397 11.4789 78.697 10.8274C77.9544 10.1766 77.5869 9.28307 77.5869 8.15489V1.3175H79.572V8.07916C79.572 8.72251 79.741 9.19954 80.0795 9.51769C80.4176 9.83584 80.8735 9.99473 81.4323 9.99473C81.991 9.99473 82.4469 9.83584 82.7924 9.51769C83.1383 9.19954 83.3074 8.72251 83.3074 8.07916V1.3175H85.2925Z" fill="black"/>
<path d="M93.9029 3.17999H91.19V11.8045H89.1384V3.17999H86.5503V1.3175H93.9029V3.17999Z" fill="black"/>
<path d="M93.7264 11.5772C93.4102 11.895 92.9027 11.895 92.594 11.5694C92.4398 11.4105 92.3588 11.1986 92.3588 10.9788C92.3514 10.7516 92.4469 10.5244 92.6088 10.3729C92.756 10.2293 92.9544 10.1461 93.1602 10.1461C93.6016 10.1461 93.9616 10.517 93.9616 10.9788C93.969 11.206 93.881 11.418 93.7264 11.5772ZM92.6969 10.5096C92.5721 10.638 92.5059 10.8047 92.5059 10.9866C92.5059 11.1681 92.5721 11.35 92.7043 11.4711C92.9618 11.7361 93.3735 11.7361 93.6384 11.4785L93.6454 11.4711C93.7706 11.3422 93.8442 11.1681 93.8367 10.9866C93.8367 10.8047 93.7706 10.6306 93.6454 10.5096C93.3954 10.2445 92.9837 10.2293 92.7262 10.4865C92.7118 10.4943 92.7043 10.5018 92.6969 10.5096ZM92.8147 11.4484V10.5322H93.2486C93.3073 10.5322 93.366 10.5474 93.4251 10.5775C93.5057 10.6232 93.5499 10.7063 93.5425 10.7973C93.5499 10.8578 93.528 10.9183 93.4838 10.9636C93.4396 11.0014 93.3883 11.0167 93.3292 11.0245C93.3735 11.0319 93.4177 11.0471 93.4544 11.0772C93.5131 11.1303 93.5425 11.206 93.5351 11.2817V11.3953C93.5351 11.4027 93.5351 11.4105 93.5425 11.4254L93.5499 11.4484H93.3292C93.3222 11.4027 93.3147 11.3649 93.3147 11.3196C93.3147 11.2817 93.3073 11.2439 93.2999 11.206C93.2925 11.1759 93.2631 11.1529 93.2338 11.1381C93.2118 11.1303 93.1825 11.1228 93.1528 11.1228H93.0498V11.4484H92.8147ZM93.2412 10.7063C93.197 10.6911 93.1528 10.6837 93.1089 10.6911H93.0498V10.9562H93.1383C93.1825 10.9562 93.2263 10.9487 93.2631 10.9257C93.2925 10.9031 93.3148 10.8578 93.3073 10.8199C93.3148 10.7668 93.2854 10.7215 93.2412 10.7063Z" fill="black"/>
</svg>
