<svg width="107" height="13" viewBox="0 0 107 13" fill="none" xmlns="http://www.w3.org/2000/svg">
<path d="M69.7204 12.5876H66.7608V0.133789L76.2795 0.141658C76.2795 0.141658 78.0223 0.0751323 79.1309 1.20392C79.1309 1.20392 80.2625 2.17819 80.2625 4.55952V12.5855H77.3104V4.35207C77.3104 4.35207 77.3465 3.51228 77.0697 3.21756C77.0697 3.21756 76.8241 2.89781 76.3579 2.89781H69.7135L69.7197 12.5833L69.7204 12.5876ZM82.3196 12.5855V0.143088H94.1971V2.91069L85.2612 2.90997V5.02591H91.4692V7.69837H85.2612V9.82146H94.2526V12.5898H82.3126L82.3196 12.5855ZM61.6032 12.5898V0.143088H64.5504V12.5898H61.6032ZM98.4396 12.5855V2.90711H95.6576V0.139512H106.723V2.90711H101.389V12.5855H98.4396ZM51.8694 12.5855V2.90711H49.0873V0.139512H60.1532V2.90711H54.8187V12.5855H51.8694ZM42.982 5.01732C43.7022 5.0116 44.133 5.01804 44.3064 4.90931C44.3064 4.90931 44.6089 4.73692 44.6124 4.36638L44.6131 3.55234C44.6131 3.18037 44.3071 3.0094 44.3071 3.0094C44.0775 2.88064 43.6883 2.90496 42.7635 2.90425H37.0217V5.01732H43.1138H42.982ZM44.5701 12.5855V8.33787C44.5701 7.95589 44.2606 7.79637 44.2606 7.79637C44.1212 7.70695 43.7028 7.6905 43.0875 7.6905H43.2304H37.0217V12.5848H34.0745V0.142373H43.2741C44.8629 0.14738 45.9597 0.388445 46.7153 1.14455C47.4576 1.92425 47.5561 2.94431 47.5603 4.00585V4.89214C47.57 5.79417 47.11 6.6168 46.5619 7.09606L46.6722 7.15257C46.8956 7.26417 47.0184 7.42225 47.0184 7.42225C47.4354 7.97162 47.4299 8.44374 47.4292 9.02458V12.5876H44.5701V12.5855ZM0.00138757 0.138796V12.5819H2.94858V7.69193H11.8776V5.01804H2.94858V2.90353H13.3276V0.135935H0L0.00138757 0.138796Z" fill="#231F20"/>
<path d="M30.0219 12.7092C30.9793 12.3737 31.7244 11.2371 31.9034 9.80784V9.39438H26.9949V12.7092H30.0219ZM31.9041 3.31697V2.94285C31.7161 1.4514 30.9155 0.276116 29.8949 0H26.9956V3.31625L31.9041 3.31697ZM14.6289 9.39438V9.80427C14.8065 11.2349 15.5516 12.3737 16.5118 12.7092H19.5229V9.39438H14.6289ZM16.6374 0.00286131C15.6182 0.278977 14.8155 1.45497 14.6289 2.94858V3.31983H19.5229V0.00357663H16.6374V0.00286131ZM31.9076 4.6997H26.9991V8.01595H31.9076V4.6997ZM20.8626 12.7114H25.6642V9.39653H20.8626V12.7114ZM25.6642 0H20.8626V3.31625H25.6642V0ZM14.6331 8.01166H19.527V4.6954H14.6331V8.01166Z" fill="#EE2E24"/>
</svg>
