<svg width="45" height="20" viewBox="0 0 45 20" fill="none" xmlns="http://www.w3.org/2000/svg">
<path d="M7.5805 12.0085C7.585 12.6872 7.19958 13.126 6.5848 13.1412C5.89028 13.1558 5.32033 12.5102 5.31889 11.7057C5.31682 11.0466 5.73738 10.5439 6.30516 10.5264C6.99637 10.5064 7.57364 11.1766 7.5805 12.0085Z" fill="#BD3626"/>
<path d="M7.77633 9.13874C7.75811 9.84133 7.22972 10.4008 6.61079 10.3749C6.03135 10.351 5.55079 9.77444 5.56348 9.1215C5.57827 8.38803 6.10142 7.79647 6.72015 7.80931C7.33341 7.8215 7.79721 8.4047 7.77634 9.13782" fill="#BD3626"/>
<path d="M7.92864 12.0735C7.93589 11.4192 8.36186 10.98 8.9856 10.9822C9.61247 10.9875 10.1639 11.5861 10.1487 12.2453C10.1343 12.8886 9.6815 13.3529 9.07976 13.3418C8.44293 13.3309 7.92232 12.7569 7.92864 12.0735Z" fill="#BD3626"/>
<path d="M9.15193 10.5377C8.54711 10.5334 8.07344 10.0208 8.08238 9.38298C8.09272 8.75938 8.5992 8.22236 9.17335 8.22329C9.75542 8.22337 10.2495 8.76821 10.2385 9.39551C10.2295 10.0423 9.75311 10.5416 9.15103 10.5367" fill="#BD3626"/>
<path d="M7.59044 14.7522C7.60957 15.325 7.3183 15.6677 6.80826 15.675C6.13461 15.6842 5.48021 15.0391 5.45998 14.3445C5.44424 13.7514 5.70813 13.4298 6.22791 13.4115C6.94508 13.3862 7.56646 13.9965 7.59044 14.7522Z" fill="#080605"/>
<path d="M8.14802 6.24145C8.14657 6.95254 7.64017 7.53264 7.02358 7.53325C6.51794 7.53448 6.18521 7.15279 6.18907 6.57777C6.1939 5.87984 6.75944 5.21932 7.34585 5.22671C7.79516 5.23233 8.1504 5.68199 8.14727 6.24252" fill="#080605"/>
<path d="M9.22145 15.8831C8.57212 15.8845 8.01627 15.3457 8.02707 14.7261C8.03742 14.1879 8.39239 13.8318 8.92928 13.8252C9.53134 13.8182 10.1339 14.3935 10.1428 14.9849C10.1503 15.4866 9.74465 15.882 9.22145 15.8831Z" fill="#080605"/>
<path d="M10.7098 12.2797C10.7202 11.6787 11.1123 11.2626 11.6634 11.2662C12.2261 11.2706 12.666 11.7296 12.6677 12.3145C12.6678 12.8737 12.1943 13.3402 11.6455 13.3221C11.1253 13.3043 10.7018 12.8304 10.7107 12.2797" fill="#BD3626"/>
<path d="M10.3874 6.59512C10.3864 7.21269 9.93979 7.71617 9.38907 7.71837C8.89368 7.72008 8.5047 7.31755 8.497 6.79197C8.48871 6.16421 8.99756 5.59105 9.55506 5.60177C10.024 5.61118 10.3881 6.04636 10.3873 6.5942" fill="#080605"/>
<path d="M12.6494 9.53992C12.646 10.1247 12.2712 10.5238 11.7227 10.527C11.1651 10.5303 10.7574 10.0954 10.7672 9.50952C10.7781 8.93383 11.2191 8.48205 11.7514 8.49898C12.2616 8.51709 12.6517 8.96841 12.6494 9.53992Z" fill="#BD3626"/>
<path d="M11.7228 14.0991C12.2823 14.1275 12.676 14.561 12.6374 15.1035C12.6042 15.5672 12.163 15.94 11.6833 15.9075C11.1632 15.8723 10.7334 15.4229 10.7594 14.9402C10.7851 14.4455 11.2111 14.0736 11.7238 14.0991" fill="#080605"/>
<path d="M7.8425 17.2956C7.8201 17.5867 7.66975 17.7983 7.31495 17.831C6.70383 17.8879 5.966 17.2506 5.94454 16.6326C5.93436 16.3061 6.10401 16.108 6.42117 16.0521C7.00996 15.9474 7.82851 16.6389 7.84259 17.2962" fill="#080605"/>
<path d="M11.8033 5.85216C12.2368 5.84646 12.6131 6.25155 12.6277 6.74302C12.6438 7.26845 12.2545 7.71809 11.7849 7.71632C11.3287 7.71623 10.9771 7.3336 10.9723 6.83329C10.9671 6.2873 11.3312 5.85808 11.8042 5.85217" fill="#080605"/>
<path d="M8.72054 3.59673C8.71509 4.22841 8.20235 4.82702 7.67378 4.81683C7.30506 4.81069 7.08769 4.55404 7.09513 4.13414C7.10739 3.54321 7.65396 2.91078 8.15861 2.90205C8.51496 2.89643 8.72411 3.15548 8.71958 3.59673" fill="#080605"/>
<path d="M10.2248 17.4208C10.2183 17.7691 9.89668 18.0612 9.51452 18.0655C8.95446 18.0717 8.36969 17.5558 8.37683 17.0642C8.38334 16.6774 8.6834 16.4215 9.12306 16.428C9.66486 16.4351 10.2314 16.9457 10.2242 17.4207" fill="#080605"/>
<path d="M7.0053 3.04819C7.01183 3.57006 6.59243 4.23877 6.13946 4.43199C5.70009 4.61622 5.36441 4.3871 5.38446 3.91353C5.40561 3.4314 5.89236 2.7545 6.34266 2.58284C6.74051 2.43155 7.00091 2.61267 7.00625 3.04802" fill="#080605"/>
<path d="M13.5704 12.2617C13.5756 11.7943 13.9799 11.3772 14.4109 11.3955C14.8415 11.415 15.1668 11.7681 15.1727 12.2253C15.1781 12.7215 14.7888 13.1457 14.3273 13.1488C13.9174 13.1494 13.5659 12.7368 13.571 12.262" fill="#BD3626"/>
<path d="M10.633 3.98263C10.6256 4.51712 10.2448 4.97932 9.79855 4.99195C9.41864 5.00171 9.12954 4.69041 9.12927 4.26794C9.12828 3.71436 9.55697 3.21583 10.0315 3.21725C10.4215 3.21874 10.6391 3.49442 10.633 3.98263Z" fill="#080605"/>
<path d="M13.5341 9.50619C13.5355 9.01055 13.8659 8.64415 14.3063 8.65055C14.7363 8.65627 15.0895 9.04704 15.0862 9.51459C15.083 9.96856 14.7492 10.3315 14.3264 10.3388C13.872 10.3456 13.5341 9.98887 13.5341 9.50619Z" fill="#BD3626"/>
<path d="M4.08792 3.61297C4.10344 3.09866 4.6912 2.32067 5.18294 2.15459C5.49147 2.05015 5.62123 2.19679 5.62971 2.48454C5.64621 2.99058 5.08097 3.82151 4.61369 4.00041C4.28305 4.1271 4.07797 3.97528 4.08792 3.61297Z" fill="#080605"/>
<path d="M14.435 14.2249C14.8157 14.2288 15.1208 14.5491 15.1223 14.9483C15.1242 15.3591 14.7429 15.7397 14.3233 15.7467C13.9209 15.754 13.5722 15.4174 13.577 15.0248C13.581 14.6043 13.9922 14.222 14.4341 14.2248" fill="#080605"/>
<path d="M11.7874 16.6854C12.2396 16.7104 12.5793 17.04 12.5668 17.44C12.5544 17.8224 12.1963 18.1083 11.7595 18.0868C11.287 18.062 10.9332 17.7163 10.9579 17.2993C10.9807 16.9171 11.3276 16.659 11.7874 16.6854Z" fill="#080605"/>
<path d="M14.8495 6.79332C14.8508 7.20816 14.5547 7.53364 14.1846 7.53125C13.803 7.52762 13.4892 7.1829 13.4774 6.75698C13.4671 6.36536 13.7817 5.9916 14.1262 5.98251C14.5088 5.97166 14.8495 6.35506 14.8495 6.79332Z" fill="#080605"/>
<path d="M12.5558 4.19075C12.5511 4.64452 12.266 4.98348 11.885 4.98672C11.5251 4.99108 11.2449 4.64544 11.2574 4.21651C11.2728 3.77796 11.5761 3.42104 11.9394 3.41692C12.3002 3.41162 12.5612 3.73913 12.5559 4.19167" fill="#080605"/>
<path d="M1.00563 11.6918C1.60095 12.052 1.96562 13.3983 1.64623 14.0541C0.959439 13.8455 0.531866 12.264 1.00563 11.6918Z" fill="#080605"/>
<path d="M7.12811 18.2846C7.52704 18.2707 8.10009 18.6714 8.23225 19.0567C8.34123 19.3764 8.20861 19.5804 7.88475 19.5864C7.49838 19.5964 6.89085 19.1777 6.76859 18.8162C6.66206 18.5025 6.80155 18.2951 7.12791 18.2837" fill="#080605"/>
<path d="M4.512 1.72389C4.59496 2.30907 3.99144 3.30628 3.47148 3.42912C3.39004 3.44672 3.184 3.28592 3.17793 3.19919C3.14267 2.64301 3.91242 1.79549 4.512 1.72327" fill="#080605"/>
<path d="M8.1471 0.912262C8.10111 1.35236 7.58557 1.97045 7.20545 2.07228C6.91354 2.15066 6.71368 1.96929 6.80357 1.67104C6.9536 1.16691 7.3019 0.820793 7.77388 0.628763C8.03107 0.524997 8.18991 0.642002 8.1472 0.911155" fill="#080605"/>
<path d="M9.87732 2.12766C9.87269 1.62131 10.2607 1.10868 10.5898 1.11578C10.8998 1.12417 10.9843 1.34811 10.9832 1.62536C10.981 2.07253 10.6695 2.47766 10.3141 2.48588C10.0053 2.49314 9.8858 2.309 9.87636 2.12775" fill="#080605"/>
<path d="M14.2112 17.9416C13.9111 17.9121 13.6514 17.8147 13.6256 17.4409C13.6017 17.1039 13.9321 16.7855 14.3122 16.7917C14.633 16.7983 14.8799 16.9398 14.9181 17.2912C14.9537 17.6058 14.58 17.9403 14.2114 17.9425" fill="#080605"/>
<path d="M17.3607 9.37323C17.343 9.66823 17.2115 9.92941 16.8356 9.95672C16.5229 9.98037 16.2314 9.66751 16.242 9.3231C16.2528 8.97469 16.4195 8.72281 16.7752 8.67792C17.0775 8.64083 17.3544 8.96632 17.3607 9.37323Z" fill="#BD3626"/>
<path d="M7.08004 0.307861C7.09341 0.818047 6.42181 1.65446 5.96993 1.71063C5.69491 1.74458 5.66148 1.58964 5.72165 1.36217C5.85081 0.890563 6.54003 0.340269 7.08004 0.307861Z" fill="#080605"/>
<path d="M14.4947 4.2322C14.48 4.54842 14.3585 4.79681 13.9958 4.81263C13.6904 4.82589 13.4498 4.51322 13.4519 4.13798C13.4538 3.80359 13.5904 3.52376 13.9378 3.54122C14.3058 3.56054 14.4724 3.85352 14.4947 4.2322Z" fill="#080605"/>
<path d="M11.8654 19.8115C11.543 19.7602 11.2361 19.6588 11.2558 19.2613C11.2745 18.8709 11.5903 18.8232 11.8936 18.844C12.2062 18.8635 12.4891 19.0084 12.4859 19.3592C12.4844 19.7359 12.1764 19.8063 11.8654 19.8115Z" fill="#080605"/>
<path d="M1.47426 14.3553C2.10422 14.931 2.38593 15.5699 2.51752 16.3378C1.96231 16.1532 1.40406 15.1174 1.47426 14.3553Z" fill="#080605"/>
<path d="M4.77577 18.8002C4.19899 18.6783 3.57267 17.9554 3.55322 17.3925C4.11086 17.4375 4.79522 18.2245 4.77577 18.8002Z" fill="#080605"/>
<path d="M6.34016 0.000413847C6.0305 0.609364 5.62481 1.06153 4.97661 1.28468C4.89851 0.715849 5.68011 -0.0199565 6.34016 0.000413847Z" fill="#080605"/>
<path d="M3.96378 1.23535C3.66627 1.95325 3.32834 2.49245 2.69777 2.85109C2.6692 2.24553 3.26119 1.46868 3.96378 1.23535Z" fill="#080605"/>
<path d="M0.690922 10.1244C0.690922 9.41457 0.911055 8.83917 1.18261 8.83917C1.45416 8.83917 1.67432 9.41457 1.67432 10.1244C1.67432 10.8341 1.45416 11.4095 1.18261 11.4095C0.911055 11.4095 0.690922 10.8341 0.690922 10.1244Z" fill="#BD3626"/>
<path d="M1.67385 10.9256C1.67385 10.218 2.01017 9.64444 2.42506 9.64444C2.83994 9.64444 3.17627 10.218 3.17627 10.9256C3.17627 11.6332 2.83994 12.2068 2.42506 12.2068C2.01017 12.2068 1.67385 11.6332 1.67385 10.9256Z" fill="#BD3626"/>
<path d="M3.31919 11.4214C3.31919 10.7018 3.73798 10.1186 4.25457 10.1186C4.77116 10.1186 5.18994 10.7018 5.18994 11.4214C5.18994 12.1409 4.77116 12.7241 4.25457 12.7241C3.73798 12.7241 3.31919 12.1409 3.31919 11.4214Z" fill="#BD3626"/>
<path d="M1.79885 6.2417C1.79885 6.2417 1.11965 6.39509 0.983814 7.80898C0.837035 9.32225 1.92374 8.663 2.06383 7.71948C2.19299 6.84232 2.11246 6.1883 1.79885 6.2417Z" fill="#BD3626"/>
<path d="M2.96645 6.88159C2.96645 6.88159 2.31248 6.9174 2.1423 8.16431C1.97364 9.41091 2.93029 9.74054 3.31957 8.72634C3.70946 7.71276 3.48884 6.92418 2.96645 6.88159Z" fill="#BD3626"/>
<path d="M4.72133 7.3327C4.72133 7.3327 3.66762 7.21033 3.67098 9.09298C3.67098 9.09298 3.90427 10.2147 4.83725 9.70493C4.83725 9.70493 5.5374 9.29213 5.4319 8.1928C5.37199 7.57139 4.72133 7.3327 4.72133 7.3327Z" fill="#BD3626"/>
<path d="M0.371613 8.28661C0.371613 8.28661 -0.177658 9.50784 0.368619 10.672C0.368619 10.672 0.505982 10.9209 0.545724 10.2492C0.586377 9.57743 0.597732 8.7482 0.475262 8.32494C0.475262 8.32494 0.417473 8.16769 0.371613 8.28661Z" fill="#BD3626"/>
<path d="M2.90633 3.83534C2.90633 3.83534 2.31861 3.88718 1.96883 4.91527C1.62088 5.94397 2.08978 6.20046 2.49061 5.7338C2.89053 5.2662 3.4354 3.79367 2.90633 3.83534Z" fill="#080605"/>
<path d="M4.01276 4.36335C4.01276 4.36335 3.20866 4.49544 2.96616 5.55809C2.76499 6.43093 3.4223 6.91057 4.03616 6.14051C4.65153 5.36983 4.51418 4.31057 4.01185 4.36335" fill="#080605"/>
<path d="M5.14469 4.91523C5.14469 4.91523 4.34577 5.40411 4.27436 6.38004C4.20325 7.35596 5.47259 7.43158 5.88527 6.52725C6.29765 5.62046 5.9573 4.54825 5.19089 4.91523" fill="#080605"/>
<path d="M0.574886 7.87945C0.574886 7.87945 0.256648 6.72972 0.924457 5.85054C0.924457 5.85054 1.19062 5.43665 1.15783 5.88721C1.12432 6.33692 0.719775 7.63104 0.716805 7.9906C0.716805 7.9906 0.644603 8.10088 0.574886 7.87945Z" fill="#BD3626"/>
<path d="M1.40058 5.25515C1.40058 5.25515 1.08283 4.5962 1.85811 3.65356C1.85811 3.65356 2.25547 3.21779 2.34536 3.43302C2.43609 3.64731 2.11545 4.08907 1.94595 4.42197C1.77591 4.75458 1.53046 5.58457 1.40058 5.25515Z" fill="#080605"/>
<path d="M3.62902 12.9945C3.62902 12.9945 3.09174 13.5779 3.81014 14.7803C4.52793 15.9837 5.43777 15.0998 5.23386 14.1927C5.03025 13.2865 4.18332 12.4989 3.62993 12.9955" fill="#080605"/>
<path d="M2.23394 12.3177C2.23394 12.3177 1.80079 12.4552 1.84783 13.1967C1.89575 13.9401 2.33682 14.5113 2.91421 14.7257C3.49331 14.9405 3.32834 13.7377 3.06696 13.1411C2.80726 12.5436 2.58634 12.3455 2.2339 12.3187" fill="#080605"/>
<path d="M5.8212 19.1424C5.8212 19.1424 6.63288 19.5631 6.28919 18.8002C6.28919 18.8002 5.9154 17.9708 5.09612 17.8397C4.48226 17.7406 5.33346 18.9406 5.8212 19.1424Z" fill="#080605"/>
<path d="M16.3919 12.0968C16.3919 11.7295 16.6601 11.4317 16.9909 11.4317C17.3217 11.4317 17.5898 11.7295 17.5898 12.0968C17.5898 12.4642 17.3217 12.762 16.9909 12.762C16.6601 12.762 16.3919 12.4642 16.3919 12.0968Z" fill="#BD3626"/>
<path d="M10.3306 19.5234C10.2141 19.7736 9.8136 19.8289 9.4345 19.6481C9.05539 19.4667 8.84167 19.1167 8.95662 18.8647C9.07227 18.6134 9.4748 18.5574 9.85321 18.7381C10.2311 18.9207 10.4455 19.2707 10.3299 19.5234" fill="#080605"/>
<path d="M4.47468 15.5927L4.47286 15.5903C4.47286 15.5903 4.10484 15.4736 3.9842 15.6773C3.90853 15.8057 3.95959 16.0767 4.01004 16.2588C4.0225 16.315 4.04012 16.3721 4.06109 16.4291C4.06291 16.4344 4.06443 16.4418 4.06443 16.4418C4.24494 16.9045 4.69014 17.3745 5.08672 17.4477C5.33226 17.4937 5.55379 17.4699 5.63098 17.1717C5.76925 16.6412 5.14385 15.7649 4.47377 15.5927" fill="#080605"/>
<path d="M3.87906 16.6498C3.73076 15.9847 3.4676 15.4507 2.93001 15.0979C2.83946 15.0393 2.67748 15.0019 2.59878 15.0461C2.52068 15.0902 2.45382 15.2572 2.46962 15.3569C2.56686 15.9964 2.87136 16.5202 3.40287 16.8871C3.45331 16.9214 3.52624 16.9461 3.59492 16.9544C3.59492 16.9544 3.94531 17.0569 3.87906 16.6498Z" fill="#080605"/>
<path d="M9.20981 0.868236C9.20981 0.868236 8.56434 0.77626 8.21791 1.87132C8.19968 1.98706 8.20971 2.23922 8.34038 2.30156C8.45616 2.35681 8.68074 2.34416 8.81414 2.28953C9.23777 2.11422 9.4119 1.73862 9.48666 1.32195C9.49182 1.07843 9.36935 0.892001 9.20981 0.868236Z" fill="#080605"/>
<path d="M21.812 4.71924H29.3436V6.72912H23.9888V8.86676H28.7073V10.8766H23.9888V14.7658H21.812V4.71924Z" fill="#080605"/>
<path d="M27.6899 4.71924H30.0922L32.6783 11.7955L35.2635 4.71924H37.6095L33.6106 14.8375H31.6888L27.6899 4.71924Z" fill="#BD3626"/>
<path d="M35.8716 9.77108V9.74205C35.8716 6.88649 37.9915 4.547 41.0295 4.547C42.8933 4.547 44.0104 5.17818 44.9293 6.09639L43.5442 7.7186C42.7811 7.01521 42.0038 6.58497 41.0152 6.58497C39.3475 6.58497 38.1465 7.9902 38.1465 9.71304V9.74205C38.1465 11.464 39.3195 12.8982 41.0152 12.8982C42.1445 12.8982 42.8374 12.4399 43.6153 11.7211L45.0004 13.1427C43.9827 14.247 42.8522 14.9362 40.9447 14.9362C38.0341 14.9362 35.8725 12.6547 35.8725 9.77014" fill="#080605"/>
</svg>
