<svg width="77" height="37" viewBox="0 0 77 37" fill="none" xmlns="http://www.w3.org/2000/svg">
<path d="M20.7753 16.3083H12.7416V18.5992H18.4396C18.1573 21.8059 15.3769 23.1823 12.7512 23.1823C11.9194 23.1858 11.0952 23.03 10.3267 22.7241C9.55826 22.4181 8.8609 21.9681 8.27538 21.4003C7.68986 20.8324 7.22791 20.1582 6.9165 19.4169C6.60509 18.6757 6.45045 17.8822 6.46162 17.0828C6.46162 13.6147 9.25544 10.9445 12.7589 10.9445C15.4616 10.9445 17.0543 12.6003 17.0543 12.6003L18.7226 10.939C18.7226 10.939 16.5794 8.64685 12.6717 8.64685C7.69555 8.64685 3.84619 12.6829 3.84619 17.0421C3.84619 21.3138 7.46712 25.4794 12.7974 25.4794C17.4861 25.4794 20.9184 22.3923 20.9184 17.8278C20.9184 16.8645 20.7727 16.3083 20.7727 16.3083H20.7753Z" fill="#4885ED"/>
<path d="M27.3568 14.6489C24.0599 14.6489 21.6973 17.1261 21.6973 20.0139C21.6973 22.9456 23.988 25.4683 27.3953 25.4683C30.4791 25.4683 33.0054 23.2033 33.0054 20.0768C33.0054 16.5002 30.0665 14.6483 27.3568 14.6483V14.6489ZM27.3888 16.774C29.0097 16.774 30.5458 18.0338 30.5458 20.0633C30.5458 22.0489 29.0161 23.3452 27.3811 23.3452C25.5845 23.3452 24.1728 21.9626 24.1728 20.0472C24.1728 18.1726 25.5717 16.774 27.394 16.774H27.3888Z" fill="#DB3236"/>
<path d="M39.6644 14.6489C36.3675 14.6489 34.0049 17.1261 34.0049 20.0139C34.0049 22.9456 36.2956 25.4683 39.7029 25.4683C42.7867 25.4683 45.313 23.2033 45.313 20.0768C45.313 16.5002 42.3741 14.6483 39.6644 14.6483V14.6489ZM39.6965 16.774C41.3173 16.774 42.8535 18.0338 42.8535 20.0633C42.8535 22.0489 41.3237 23.3452 39.6888 23.3452C37.8921 23.3452 36.4804 21.9626 36.4804 20.0472C36.4804 18.1726 37.8793 16.774 39.7016 16.774H39.6965Z" fill="#F4C20D"/>
<path d="M51.7361 14.655C48.71 14.655 46.332 17.2019 46.332 20.0607C46.332 23.3167 49.0893 25.4763 51.6835 25.4763C53.2877 25.4763 54.1411 24.8639 54.7635 24.1616V25.2284C54.7635 27.095 53.5841 28.2131 51.8042 28.2131C50.0845 28.2131 49.2221 26.984 48.9167 26.2872L46.753 27.1505C47.5204 28.7107 49.0655 30.3369 51.8221 30.3369C54.838 30.3369 57.1236 28.5158 57.1236 24.6962V14.98H54.7725V15.8964C54.0474 15.144 53.0541 14.655 51.7374 14.655H51.7361ZM51.9543 16.7764C53.4378 16.7764 54.9612 17.9937 54.9612 20.0724C54.9612 22.1858 53.4404 23.35 51.9216 23.35C50.3084 23.35 48.8076 22.092 48.8076 20.0922C48.8076 18.0152 50.3668 16.7764 51.9543 16.7764Z" fill="#4885ED"/>
<path d="M67.6316 14.6421C64.7775 14.6421 62.3809 16.8251 62.3809 20.0441C62.3809 23.4518 65.0521 25.4726 67.8992 25.4726C70.2811 25.4726 71.7492 24.2208 72.6154 23.0984L70.6693 21.854C70.1643 22.6063 69.3198 23.3433 67.9114 23.3433C66.329 23.3433 65.6014 22.5108 65.1503 21.7029L72.6982 18.6936L72.3132 17.8118C71.5843 16.0851 69.8826 14.6421 67.6316 14.6421ZM67.7298 16.7227C68.7584 16.7227 69.4982 17.2481 69.8126 17.8784L64.7717 19.9029C64.5535 18.3353 66.1 16.7227 67.7234 16.7227H67.7298Z" fill="#DB3236"/>
<path d="M58.7769 25.1519H61.2563V9.20679H58.7769V25.1519Z" fill="#3CBA54"/>
</svg>
