<svg width="97" height="48" viewBox="0 0 97 48" fill="none" xmlns="http://www.w3.org/2000/svg">
<path d="M35.4858 29.872V25.1104H31.2541V29.872H29.0999V18.5816H31.2541V23.2256H35.4858V18.5816H37.64V29.872M45.5374 29.872H43.8278L43.6726 29.3136C42.9333 29.7894 42.0704 30.0429 41.1886 30.0432C39.6632 30.0432 39.0125 29.0088 39.0125 27.5848C39.0125 25.9064 39.7497 25.2632 41.4375 25.2632H43.4422V24.3976C43.4422 23.4832 43.1859 23.1608 41.8498 23.1608C41.0728 23.1662 40.2984 23.2484 39.5379 23.4064L39.2817 21.8304C40.2137 21.5744 41.1756 21.444 42.1432 21.44C44.7622 21.44 45.5342 22.3544 45.5342 24.424L45.5374 29.872ZM43.4479 26.752H41.9072C41.2217 26.752 41.0342 26.9376 41.0342 27.5664C41.0342 28.1424 41.2217 28.3984 41.8748 28.3984C42.4276 28.3898 42.9693 28.2431 43.4495 27.972L43.4479 26.752ZM49.5815 30.032C48.6038 30.0148 47.6341 29.8547 46.7038 29.5568L46.9948 27.9808C47.8029 28.2095 48.6384 28.3293 49.4788 28.3368C50.4027 28.3368 50.541 28.1232 50.541 27.5048C50.541 26.9976 50.4375 26.7416 49.0844 26.4192C47.0474 25.9264 46.8073 25.4192 46.8073 23.8272C46.8073 22.1664 47.5445 21.4368 49.925 21.4368C50.7673 21.4376 51.6064 21.5344 52.426 21.7248L52.2183 23.376C51.461 23.2376 50.694 23.1584 49.9242 23.1392C49.0173 23.1392 48.8621 23.3528 48.8621 23.8592C48.8621 24.52 48.9138 24.5792 50.0447 24.8592C52.3888 25.4712 52.6038 25.776 52.6038 27.4624C52.6038 29.064 52.1059 30.0464 49.5888 30.0464L49.5815 30.032ZM58.8127 29.872V24.1152C58.8127 23.6736 58.6251 23.4544 58.145 23.4544C57.6325 23.4544 56.7223 23.7584 55.9689 24.1504V29.8736H53.8794V18.2496L55.9689 17.9616V22.2496C56.9147 21.7696 57.955 21.4976 59.0164 21.452C60.4035 21.452 60.8998 22.4176 60.8998 23.8936V29.8776L58.8127 29.872ZM62.4502 20.448V18.064H64.5397V20.4544L62.4502 20.448ZM62.4502 29.872V21.632H64.5397V29.888L62.4502 29.872ZM65.9963 21.684C65.9963 19.616 67.2112 18.4136 70.0541 18.4136C71.0989 18.4134 72.1398 18.5386 73.1541 18.7864L72.9116 20.64C71.9878 20.4666 71.0508 20.3703 70.1107 20.352C68.6202 20.352 68.1416 20.8616 68.1416 22.0576V26.3968C68.1416 27.5992 68.6218 28.1024 70.1107 28.1024C71.0508 28.084 71.9878 27.9877 72.9116 27.8144L73.1509 29.6544C72.1364 29.8944 71.0953 30.0272 70.0509 30.0272C67.2072 30.0272 65.9931 28.8248 65.9931 26.7568L65.9963 21.684ZM77.4423 30.04C74.5808 30.04 73.8048 28.4816 73.8048 26.7864V24.7008C73.8048 23.0048 74.576 21.4472 77.4423 21.4472C80.3087 21.4472 81.0798 23.0056 81.0798 24.7008V26.7864C81.0733 28.4824 80.3038 30.04 77.4423 30.04ZM77.4423 23.216C76.3284 23.216 75.9016 23.7088 75.9016 24.64V26.8536C75.9016 27.7856 76.3325 28.2776 77.4423 28.2776C78.5522 28.2776 78.983 27.7848 78.983 26.8536V24.64C78.979 23.708 78.5497 23.216 77.4423 23.216ZM86.6169 23.344C85.849 23.688 85.111 24.0904 84.4061 24.5464V29.8768H82.3166V21.616H84.0812L84.2186 22.5304C84.898 22.0744 85.6354 21.7094 86.4116 21.4448L86.6169 23.344ZM94.541 27.124C94.541 28.964 93.7181 30.0384 91.783 30.0384C91.0344 30.0304 90.2875 29.9584 89.5552 29.7984V33.2096L87.4656 33.4976V21.616H89.1268L89.3426 22.312C90.104 21.7494 91.0292 21.4465 91.9794 21.4488C93.6575 21.4488 94.5475 22.4328 94.5475 24.3144L94.541 27.124ZM89.5576 28.056C90.1659 28.1882 90.786 28.2598 91.4087 28.2696C92.1629 28.2696 92.4539 27.9136 92.4539 27.1672V24.24C92.4539 23.5616 92.1976 23.1888 91.4273 23.1888C90.7355 23.2125 90.0744 23.4767 89.56 23.9352L89.5576 28.056ZM12.3618 11.572L2.46777 17.22V30.7856L6.18611 32.9096V19.3376L12.3618 15.8072M16.3008 11.564V22.368H12.3529V18.336L8.63455 20.46V34.3024L12.3529 36.4304V25.6576H16.3008V29.6616L20.0191 27.54V13.68M16.3008 36.436L26.1948 30.788V17.22L22.4765 15.096V28.664L16.3008 32.1944" fill="black"/>
</svg>
