<svg width="71" height="12" viewBox="0 0 71 12" fill="none" xmlns="http://www.w3.org/2000/svg">
<path fill-rule="evenodd" clip-rule="evenodd" d="M56.5287 0.299316V4.61424H62.3313V0.299316C62.2966 0.299316 65.1454 0.299316 65.1801 0.299316V11.1129H62.3313V6.3449H56.5287V11.1026H53.6799V0.299316H56.5287ZM29.3503 0.299316V2.13785H24.9528V11.1129H22.0684V2.13785H17.7065V0.299316H29.3503ZM40.4884 11.1129H37.2803L36.3423 8.7697H30.9702L30.0322 11.1129H26.8617L31.9083 0.299316H35.4043L40.4884 11.1129ZM33.6755 2.13785L31.6569 7.03998H35.6585L33.6755 2.13785ZM67.4445 11.1129V0.299316H70.328V11.1129H67.4445Z" fill="black"/>
<path fill-rule="evenodd" clip-rule="evenodd" d="M2.89287 0.299229V4.61415H8.65986V0.299229H11.534V11.1128H8.65048V6.34481H2.88349V11.1025H0V0.299229H2.88349M13.8134 11.1128V0.299229H16.6612V11.1128H13.8134ZM40.3802 8.1205C40.1269 7.36351 39.9834 6.60652 39.9834 5.81295C39.9834 4.65918 40.1991 3.57857 40.7404 2.64054C41.2816 1.70252 42.1474 0.982114 43.1924 0.576886C44.2078 0.198502 45.2822 0.00318224 46.3657 0C47.6066 0.00232839 48.8336 0.260002 49.9706 0.756987C51.0024 1.226 51.8091 2.16403 52.023 3.28966L52.1327 3.97442H49.1489C49.1142 3.68645 49.0785 3.39753 48.9688 3.1452C48.8616 2.84495 48.6852 2.5742 48.4537 2.35498C48.2223 2.13576 47.9424 1.97424 47.6368 1.88356C47.2259 1.76882 46.8017 1.70827 46.3751 1.70346C45.8686 1.70346 45.3996 1.77568 44.9681 1.95672C44.5978 2.07807 44.2612 2.28477 43.9855 2.56014C43.7098 2.83551 43.5027 3.17184 43.3809 3.54199C43.118 4.27025 42.9838 5.03869 42.9841 5.81295C42.9841 6.46207 43.092 7.11024 43.2721 7.68713C43.4879 8.47976 44.0648 9.12888 44.8217 9.41779C45.3283 9.59789 45.8329 9.70576 46.3742 9.70576C46.8271 9.7071 47.2771 9.63389 47.7062 9.48908C47.9811 9.39812 48.2347 9.25228 48.4515 9.0604C48.6684 8.86852 48.844 8.63461 48.9678 8.37283C49.1127 8.00551 49.1859 7.61388 49.1836 7.21905H52.2134L52.0567 8.22087C51.8063 9.30241 51.0502 10.2029 50.04 10.5997C48.9144 11.1044 47.6621 11.3567 46.3657 11.3567C45.3545 11.3567 44.3809 11.2122 43.4438 10.9252C42.0743 10.4937 40.8483 9.48345 40.3802 8.11393" fill="black"/>
</svg>
