<svg width="98" height="24" viewBox="0 0 98 24" fill="none" xmlns="http://www.w3.org/2000/svg">
<path d="M37.5637 16.5659H35.2983V6.62324H37.5637V10.6519H42.6048V6.62324H44.8702V16.565H42.6048V12.4041H37.5637V16.5659ZM48.9784 12.577C48.9784 14.3356 49.5331 15.068 51.4065 15.068C53.2798 15.068 53.8105 14.3283 53.8105 12.577V6.62232H56.074V12.6325C56.1905 13.5691 55.9677 14.516 55.4453 15.3019C54.5576 16.2746 53.2696 16.675 51.3972 16.675C49.5248 16.675 48.2202 16.2746 47.3362 15.3019C46.8406 14.7675 46.7185 13.8918 46.7185 12.6325V6.62232H48.9682L48.9784 12.577ZM63.4795 6.62232L68.0657 16.565H65.5571L64.5678 14.196H59.8891L58.9302 16.565H56.5234L61.0772 6.62232H63.4795ZM60.6159 12.4253H63.8243L62.1905 8.60474L60.6159 12.4253ZM83.4026 6.62324L80.0739 16.565H77.3L75.0162 9.15305L73.0097 16.5751H70.2497L66.6648 6.63341H69.0966L71.5932 14.2765L73.6921 6.63341H76.3615L78.773 14.2765L81.0966 6.63341L83.4026 6.62324ZM86.4586 10.6658H92.7248V12.3893H86.4373C86.4493 14.1757 87.214 14.8248 88.9985 14.8248H92.7156V16.5566H88.8931C87.7059 16.6676 86.5168 16.3597 85.5348 15.6847C84.9606 15.2161 84.5102 14.6138 84.2229 13.9306C83.9356 13.2474 83.8203 12.5042 83.8871 11.7661C83.8871 8.25245 85.4914 6.61584 88.9542 6.61584H92.7147V8.34862H88.9976C87.3666 8.34769 86.5427 9.09387 86.4502 10.6584M94.7202 6.62324H97.0873V16.5659H94.7202V6.62324Z" fill="#0A0808"/>
<path d="M13.2995 18.1664C13.3327 18.1386 13.3429 18.0924 13.3254 18.0526C11.0116 13.0874 8.12735 8.40866 4.73084 4.11094C4.73084 4.11094 2.0309 6.67219 2.2223 9.24268C2.31423 10.4405 2.87713 11.553 3.78771 12.3365C6.14276 14.6324 11.8459 17.5302 13.1728 18.1858C13.2144 18.2089 13.2671 18.2006 13.3004 18.1673M12.4183 20.1312C12.4095 20.1059 12.393 20.0839 12.3711 20.0683C12.3492 20.0527 12.3231 20.0443 12.2962 20.0443V20.0425L2.8002 20.3735C3.82932 22.2098 5.57411 23.6356 7.37068 23.1982C8.61709 22.8866 11.4428 20.9162 12.3637 20.2514V20.2486C12.4349 20.1839 12.41 20.1321 12.41 20.1321M12.5616 19.2778C12.6078 19.2038 12.5246 19.1391 12.5246 19.1391L12.5255 19.1354C8.36467 16.3245 0.272236 12.0037 0.272236 12.0037C-0.165224 13.3578 -0.0728843 14.8274 0.530631 16.1161C1.13415 17.4048 2.20393 18.4167 3.52419 18.9477C4.10413 19.1775 4.71732 19.3124 5.34018 19.3471C5.48257 19.3749 10.9879 19.3499 12.4617 19.3434C12.5033 19.3388 12.5403 19.3138 12.5598 19.2769M13.1922 0.0110966C12.778 0.0480821 11.6629 0.301432 11.6629 0.301432C10.1899 0.676835 9.01561 1.78548 8.55422 3.23254C8.29361 4.22005 8.29808 5.25884 8.56716 6.24408C9.40581 9.96667 13.5362 16.0859 14.422 17.3693C14.4848 17.4322 14.5366 17.4091 14.5366 17.4091C14.5903 17.3961 14.6272 17.3462 14.6245 17.2907H14.6263C15.9911 3.63106 13.1931 0 13.1931 0M16.3341 17.4054C16.3859 17.4267 16.4451 17.4045 16.471 17.3545C17.3827 16.036 21.4881 9.95096 22.3221 6.24408C22.5717 5.25657 22.5773 4.22282 22.3378 3.23254C22.1078 2.51707 21.6987 1.87225 21.1495 1.35927C20.6003 0.846288 19.9291 0.482157 19.1996 0.301432C19.1996 0.301432 18.4737 0.118355 17.7044 0.0101725C17.7044 0.0101725 14.8898 3.6329 16.2583 17.3009H16.2602C16.2611 17.3471 16.2897 17.3897 16.3341 17.4054ZM18.581 20.0526C18.581 20.0526 18.4885 20.0637 18.4737 20.1247C18.4626 20.171 18.4765 20.2209 18.5107 20.2542C19.4169 20.9061 22.1723 22.8432 23.5038 23.2066C23.5038 23.2066 25.9587 24.0424 28.09 20.3809L18.5828 20.048L18.581 20.0526ZM30.6198 11.9824C30.6198 11.9824 22.5477 16.3134 18.373 19.1298C18.352 19.1455 18.3363 19.1671 18.3279 19.1919C18.3194 19.2166 18.3187 19.2434 18.3258 19.2685C18.3258 19.2685 18.3656 19.3397 18.4238 19.3397V19.3416L25.7155 19.3231C26.2761 19.279 26.827 19.1519 27.3503 18.9458C28.7141 18.4114 29.8116 17.361 30.4071 16.0221C30.9659 14.7457 31.0415 13.3095 30.6198 11.9815M17.6101 18.1765C17.6471 18.2043 17.698 18.208 17.7396 18.1858C19.0988 17.5071 24.7603 14.6287 27.1043 12.3448C28.0146 11.5553 28.5767 10.4386 28.6688 9.23714C28.8399 6.5788 26.1723 4.11926 26.1723 4.11926C22.7826 8.40577 19.903 13.072 17.5916 18.024H17.5944C17.5694 18.0748 17.5796 18.1349 17.6203 18.1756" fill="#E12229"/>
</svg>
