<svg width="77" height="37" viewBox="0 0 77 37" fill="none" xmlns="http://www.w3.org/2000/svg">
<path d="M63.2009 11.6649C60.8511 0.667235 38.7143 -0.036999 24.4442 8.3435V9.27652C38.6969 2.20582 58.9101 2.2385 60.7658 12.3685C61.3786 15.7232 59.4375 19.2092 55.9295 21.222V23.857C60.1357 22.3677 64.4445 17.5559 63.2009 11.6649ZM37.2487 30.9104C27.4055 31.7941 17.1389 30.4029 15.708 22.9899C14.9925 19.3405 16.7295 15.4623 19.0286 13.04V11.7475C14.8898 15.2502 12.6427 19.668 13.9543 24.872C15.6066 31.5647 24.4102 35.3615 37.8454 34.1017C43.1751 33.6108 50.1398 31.9581 54.9587 29.3885V25.7397C50.5652 28.276 43.3112 30.3641 37.2487 30.9104Z" fill="#127CC1"/>
<path d="M54.176 10.0609H51.5876V21.1566C51.5876 22.4658 52.2343 23.5949 54.176 23.775M23.4222 14.1198H20.8511V21.3693C20.8511 22.6785 21.4979 23.8076 23.4396 23.9877M20.8511 10.405H23.4396V12.7607H20.8511V10.405ZM38.9012 23.873C36.8068 23.873 35.9213 22.4658 35.9213 21.098V11.4515H38.4751V14.1192H40.4161V16.116H38.4744V20.9272C38.4744 21.5007 38.7632 21.8109 39.3599 21.8109H40.3994V23.873H38.9012ZM45.6791 16.0025C44.8109 16.0025 44.1295 16.4446 43.8567 17.0336C43.6867 17.3937 43.6354 17.6552 43.6014 18.0973H47.5521C47.5008 17.0169 46.99 16.0025 45.6784 16.0025M43.6007 19.7666C43.6007 21.0265 44.4182 21.9595 45.8658 21.9595C47.0067 21.9595 47.5688 21.6487 48.2156 21.0265L49.7992 22.483C48.7777 23.4487 47.7215 24.037 45.8485 24.037C43.3973 24.037 41.0462 22.7439 41.0462 18.9804C41.0462 15.7737 43.09 13.9564 45.7805 13.9564C48.505 13.9564 50.0719 16.0839 50.0719 18.8823V19.766H43.6014M30.3875 16.1153C31.137 16.1153 31.4431 16.4755 31.4431 17.0484V23.8724H33.9969V17.049C33.9969 15.6578 33.2307 14.1198 30.983 14.1198H25.7053V23.8897H28.2591V16.116" fill="#127CC1"/>
</svg>
