<svg width="37" height="39" viewBox="0 0 37 39" fill="none" xmlns="http://www.w3.org/2000/svg">
<g clip-path="url(#clip0_561_1037)">
<path d="M0 0H36.9869V31.4542H0V0Z" fill="#FF3300"/>
<path d="M28.4464 18.0879V20.3816C28.4464 20.9858 27.9632 21.4764 27.3681 21.4764C26.773 21.4764 26.2898 20.9858 26.2898 20.3816V9.10645H24.1985V22.2756H30.5396V18.0823H28.4483L28.4464 18.0879ZM12.7364 20.3627C12.7364 20.9763 12.2607 21.4934 11.6618 21.4934C11.0592 21.4858 10.5779 20.9877 10.5798 20.3759V18.0823H8.48846V19.9839C8.48846 20.9385 9.31305 22.4726 11.6543 22.4726C13.9975 22.4726 14.8202 21.2964 14.8202 19.9839V9.10645H12.7364V20.3627ZM20.5886 9.10645H16.406V22.2756H20.5886C22.152 22.2756 22.6799 21.2245 22.6799 20.5502V16.6106C22.6799 16.0481 22.1258 15.317 21.3031 15.317C22.1277 15.317 22.6799 14.154 22.6799 13.5006V11.2562C22.6799 9.79966 21.3927 9.10645 20.5886 9.10645ZM19.7659 21.2055H18.4973V15.8928H19.7659C20.5905 15.8928 20.5905 16.5007 20.5905 18.5652C20.5886 20.6297 20.5886 21.2055 19.7659 21.2055ZM19.6372 14.7829L18.4973 14.7772V10.3546H19.6372C20.4039 10.3546 20.5905 10.5175 20.5905 12.582C20.5886 14.6465 20.402 14.7829 19.6372 14.7829ZM9.53878 16.6523C10.2197 16.6655 10.7813 16.1144 10.7943 15.4249C10.8074 14.7336 10.2645 14.1635 9.58542 14.1521C8.90449 14.1389 8.34295 14.69 8.32989 15.3795V15.3984C8.32056 16.0822 8.86344 16.6447 9.53878 16.6523ZM11.4697 9.10645H7.60791L9.53878 13.6597L11.4697 9.10645Z" fill="white"/>
<path d="M7.09852 33.6891V35.7858H4.7367V33.6891H3.78339V38.4052H4.7423V36.2043H7.10412V37.8957C7.10039 37.9866 7.12091 38.0775 7.16195 38.1571C7.1974 38.2215 7.2515 38.2726 7.3168 38.3067C7.37463 38.3446 7.44179 38.3692 7.50895 38.3787C7.56865 38.392 7.62835 38.3976 7.68991 38.3976H8.05743V33.6815H7.09852V33.6891ZM25.7767 38.4052V33.6891H24.8439L22.9709 37.1779L21.0661 33.6834H20.1203V38.3995H20.609V34.7422L22.6164 38.3995H22.8683L24.8252 34.7744V37.8976C24.8234 37.9885 24.8458 38.0794 24.8905 38.159C24.9278 38.2234 24.9819 38.2783 25.0454 38.3162C25.1032 38.3541 25.1704 38.3787 25.2375 38.3882C25.2991 38.4014 25.3607 38.4071 25.4241 38.4071L25.7767 38.4052ZM31.7689 38.4052L29.381 33.5849H29.0974L26.6516 38.4052H27.2113L27.9706 36.9089H29.7019L29.4631 36.4259H28.215L29.0191 34.8388L30.5955 38.0264C30.6458 38.1419 30.7261 38.2404 30.8268 38.3143C30.9331 38.3787 31.0563 38.409 31.1813 38.4052H31.7689ZM36.7425 33.6891C36.7127 33.6891 36.6828 33.691 36.653 33.6948C36.6194 33.7023 36.5858 33.7156 36.556 33.7345C36.5243 33.7535 36.4982 33.78 36.4795 33.8122C36.4571 33.852 36.4459 33.8974 36.4478 33.9429V36.9809L33.2688 33.6891H32.6569V38.4052H33.2166V34.852L36.4478 38.2878C36.5765 38.4185 36.7631 38.4052 36.9366 38.4052H37V33.6891H36.7425ZM11.6804 33.583H11.4043L8.95291 38.4033H9.51258L11.3203 34.8369L12.1057 36.4241H10.8502L10.6058 36.9014H12.3501L12.9042 38.0245C12.9546 38.14 13.0348 38.2385 13.1355 38.3124C13.2437 38.373 13.3669 38.4033 13.49 38.3976H14.0758L11.6804 33.583ZM17.8219 38.0264L16.4115 36.2498H15.9227V38.4052H14.9694V33.6891H16.7268C16.7268 33.6891 17.4469 33.6758 17.9245 33.9239C18.4002 34.1721 18.5998 34.5111 18.5998 34.9486C18.5998 35.3861 18.348 35.8956 17.4413 36.157L19.2696 38.4033H18.5289C18.4151 38.3995 18.3032 38.3806 18.195 38.3446C18.0215 38.2745 17.8219 38.0264 17.8219 38.0264ZM15.9227 34.1001V35.8843H16.3667C16.3667 35.8843 16.8051 35.8899 17.0943 35.7214C17.3835 35.5509 17.5831 35.316 17.5831 34.9694C17.5812 34.6228 17.3723 34.3141 17.0551 34.1853C16.9003 34.119 16.7342 34.0868 16.5663 34.0944H15.9227V34.1001ZM0 36.2025H0.141784V37.1097C0.283568 36.9657 0.412293 36.8881 0.624968 36.8881C0.971966 36.8881 1.21636 37.1627 1.21636 37.5605C1.21636 38.0245 0.91973 38.3181 0.470126 38.3181C0.30782 38.3162 0.147381 38.2802 0 38.2139L0 36.2025ZM0.147381 38.1173C0.251853 38.159 0.363788 38.1817 0.475722 38.1817C0.794736 38.1931 1.06338 37.9393 1.07457 37.6135V37.5737C1.07457 37.248 0.880553 37.0188 0.611909 37.0188C0.444007 37.0188 0.309686 37.0964 0.149246 37.2858V38.1173H0.147381ZM1.65477 38.9999H1.51298L1.97565 38.0264L1.41597 36.9165H1.56335L2.04654 37.8825L2.5092 36.9165H2.65658L1.65477 38.9999Z" fill="#FF3300"/>
</g>
<defs>
<clipPath id="clip0_561_1037">
<rect width="37" height="39" fill="white"/>
</clipPath>
</defs>
</svg>
