<svg width="69" height="23" viewBox="0 0 69 23" fill="none" xmlns="http://www.w3.org/2000/svg">
<g clip-path="url(#clip0_561_1041)">
<path d="M0.0136719 0H68.9858V23H0.0136719V0Z" fill="#E22319"/>
<path d="M30.0385 7.75342C28.9964 7.75342 27.8893 8.2095 27.1729 9.18684V7.94898H24.7631V16.8101H27.1729V11.728C27.1729 10.8158 27.8893 9.83848 29.1919 9.83848C30.1689 9.83848 31.211 10.5552 31.211 11.728V16.7449H33.6208V11.2719C33.6858 9.25203 32.1878 7.75342 30.0385 7.75342ZM50.9451 7.8838L48.7308 13.9432L46.5163 7.8838H43.7809L47.4282 16.7449H50.0984L53.6805 7.8838H50.9451ZM22.1579 14.0084C21.1158 14.7903 20.5296 14.9206 19.6178 14.9206C18.7712 14.9206 18.1198 14.66 17.6639 14.2039L23.8512 11.5977C23.7209 10.6204 23.3301 9.77329 22.8092 9.12177C21.9624 8.14443 20.7901 7.68835 19.2922 7.68835C16.6219 7.68835 14.6028 9.64303 14.6028 12.2492C14.6028 14.9206 16.6219 16.8102 19.5526 16.8102C21.1808 16.8102 22.8742 16.0283 23.6558 15.1161L22.1579 14.0084ZM17.4685 10.5552C17.8594 9.96874 18.5105 9.64303 19.3573 9.64303C20.2039 9.64303 20.9203 10.1643 21.246 10.881L17.0126 12.6402C16.8824 11.7932 17.1429 11.0764 17.4685 10.5552ZM14.4075 14.5296H8.87144V5.27759H6.39648V16.7449H14.4075V14.5296ZM58.0443 16.8752C55.3741 16.8752 53.2899 14.9206 53.2899 12.3143C53.2899 9.77318 55.374 7.75342 58.0443 7.75342C60.7145 7.75342 62.7987 9.7081 62.7987 12.3143C62.8638 14.9206 60.7797 16.8752 58.0443 16.8752ZM58.0443 9.83848C56.6765 9.83848 55.6996 10.881 55.6996 12.3144C55.6996 13.6827 56.7417 14.7904 58.0443 14.7904C59.412 14.7904 60.3891 13.7478 60.3891 12.3144C60.454 10.9461 59.4119 9.83848 58.0443 9.83848ZM39.352 16.8752C36.6818 16.8752 34.5976 14.9206 34.5976 12.3143C34.5976 9.77318 36.6818 7.75342 39.352 7.75342C42.0224 7.75342 44.1065 9.7081 44.1065 12.3143C44.1065 14.9205 42.0225 16.8752 39.352 16.8752ZM39.352 9.83848C37.9844 9.83848 37.0073 10.881 37.0073 12.3144C37.0073 13.6827 38.0494 14.7904 39.352 14.7904C40.7198 14.7904 41.6968 13.7478 41.6968 12.3144C41.7618 10.9461 40.7198 9.83848 39.352 9.83848ZM63.1895 15.7024H62.7987V15.507H63.8409V15.7024H63.45V16.7449H63.1895V15.7024ZM64.1014 15.5071H64.3619L64.7526 16.0935L65.1435 15.5071H65.404V16.8102H65.1435V15.898L64.7526 16.4844L64.3619 15.898V16.8102H64.1014V15.5071Z" fill="white"/>
</g>
<defs>
<clipPath id="clip0_561_1041">
<rect width="69" height="23" fill="white"/>
</clipPath>
</defs>
</svg>
