<svg width="92" height="12" viewBox="0 0 92 12" fill="none" xmlns="http://www.w3.org/2000/svg">
<path d="M39.5196 7.72284H45.5803L42.3644 2.5896L36.4892 11.9286H33.8298L40.9338 0.741997C41.2432 0.309439 41.7382 0 42.3562 0C42.9127 0 43.4068 0.246238 43.7171 0.681258L50.8908 11.8752H48.2388L47.0019 9.77237H40.8788L39.5196 7.72284ZM67.2886 9.76416V0.0541724H64.9995V10.6917C64.9995 11.0011 65.1226 11.2482 65.3089 11.496C65.5551 11.7423 65.8038 11.867 66.1133 11.867H76.4413L77.8022 9.76416H67.2886ZM29.8096 8.04049C32.0364 8.04049 33.7674 6.24706 33.7674 4.08263C33.7674 1.85581 31.974 0.124761 29.8096 0.124761H19.9133V11.9376H22.2016V2.16443H29.6848C30.1924 2.16745 30.6783 2.37042 31.0373 2.72935C31.3962 3.08828 31.5992 3.57422 31.6022 4.08181C31.5992 4.58925 31.3963 5.07507 31.0376 5.43397C30.6788 5.79288 30.1931 5.99595 29.6856 5.99918H23.3163L30.0575 11.8744H33.3357L28.759 8.03967L29.8096 8.04049ZM5.87524 11.8752C2.59699 11.8752 0 9.21587 0 6C0 2.72175 2.65937 0.124761 5.87524 0.124761H12.7404C16.0186 0.124761 18.6156 2.78413 18.6156 6C18.6156 9.27825 15.9562 11.8752 12.7404 11.8752H5.87524ZM12.6164 9.77237C13.6316 9.76634 14.6035 9.36038 15.3213 8.64253C16.0392 7.92468 16.4451 6.9528 16.4512 5.93762C16.4451 4.92244 16.0392 3.95056 15.3213 3.23271C14.6035 2.51486 13.6316 2.1089 12.6164 2.10287H6.06074C5.04556 2.1089 4.07368 2.51486 3.35583 3.23271C2.63797 3.95056 2.23202 4.92244 2.22599 5.93762C2.23202 6.9528 2.63797 7.92468 3.35583 8.64253C4.07368 9.36038 5.04556 9.76634 6.06074 9.77237H12.6164ZM55.6613 11.8752C52.383 11.8752 49.786 9.21587 49.786 6C49.786 2.72175 52.4454 0.124761 55.6613 0.124761H63.8249L62.464 2.22763H55.7844C54.7692 2.23366 53.7973 2.63962 53.0795 3.35747C52.3616 4.07532 51.9557 5.0472 51.9497 6.06238C51.9557 7.07756 52.3616 8.04944 53.0795 8.76729C53.7973 9.48514 54.7692 9.8911 55.7844 9.89713H63.948L62.5871 12H55.6596L55.6613 11.8752ZM83.4304 9.77237C81.7067 9.77237 80.2145 8.59699 79.7811 6.98988H89.4911L90.852 4.887H79.8435C80.2761 3.27825 81.7609 2.10451 83.4927 2.10451H90.1724L91.5332 0.00164225H83.3688C80.0906 0.00164225 77.4936 2.66101 77.4936 5.87688C77.4936 9.15513 80.1529 11.7521 83.3688 11.7521H90.3579L91.7187 9.64925H83.4312L83.4304 9.77237Z" fill="#E30613"/>
</svg>
