<svg width="91" height="15" viewBox="0 0 91 15" fill="none" xmlns="http://www.w3.org/2000/svg">
<path d="M13.9634 0.0738525C15.4213 0.0738525 16.6539 0.584741 17.6459 1.59118C18.638 2.59761 19.1339 3.83633 19.1339 5.30716C19.1339 6.76266 18.638 8.00122 17.661 9.02315C16.684 10.0451 15.4815 10.5405 14.0537 10.5405C12.6259 10.5405 11.4083 10.0296 10.4163 9.02315C9.42426 8.01672 8.94336 6.7935 8.94336 5.3535C8.94336 4.39355 9.16884 3.51092 9.61981 2.69028C10.0708 1.86963 10.6869 1.23478 11.4536 0.770377C12.2199 0.306131 13.0616 0.0738525 13.9634 0.0738525ZM14.0086 1.0493C13.2871 1.0493 12.6107 1.23509 11.9794 1.62217C11.333 2.00925 10.837 2.52013 10.4763 3.17048C10.1156 3.82083 9.93525 4.5485 9.93525 5.35365C9.93525 6.53038 10.326 7.53682 11.1377 8.35746C11.9344 9.17811 12.8963 9.58068 14.0236 9.58068C14.7751 9.58068 15.4666 9.39489 16.1128 9.0233C16.7442 8.65172 17.2551 8.14068 17.6008 7.49049C17.9615 6.84014 18.1419 6.11247 18.1419 5.32281C18.1419 4.53316 17.9615 3.82099 17.6008 3.17064C17.2401 2.53578 16.744 2.0249 16.0827 1.63782C15.4215 1.23509 14.73 1.0493 14.0086 1.0493Z" fill="#FF6E41"/>
<path d="M21.7344 10.6181V0.0428467H21.9599L28.7987 8.15616V0.0428467H29.8208V10.6181H29.5803L22.8015 2.61309V10.6181H21.7344Z" fill="#FF6E41"/>
<path d="M33.5635 0.0428467H32.6016V10.6026H33.5635V0.0428467Z" fill="#FF6E41"/>
<path d="M67.3373 0.0428467H65.3682L62.6025 7.67626L68.1789 7.70725L69.246 10.5718H71.2601L67.3373 0.0428467ZM65.0075 6.43755L66.3753 2.82988L67.7281 6.43755H65.0075Z" fill="#FF6E41"/>
<path d="M73.3647 0.0428467H75.3037V8.63621H79.1666V10.5406H73.3647V0.0428467Z" fill="#FF6E41"/>
<path d="M81.2407 0.0428467H83.1797V8.63621H87.0425V10.5406H81.2407V0.0428467Z" fill="#FF6E41"/>
<path d="M65.6237 15C65.6237 15 60.8741 13.2349 59.8219 10.3086C58.6495 7.02598 62.9934 6.28281 67.4425 6.40678C69.8324 6.48426 72.7632 6.85584 72.7632 6.85584C72.7632 6.85584 65.8492 7.7693 63.3541 9.84416C60.9191 11.8569 65.6237 15 65.6237 15Z" fill="#FF6E41"/>
<path d="M45.0017 8.06345C44.0999 9.11637 42.9725 9.64275 41.6498 9.64275C40.4173 9.64275 39.3802 9.24018 38.5686 8.41953C37.7569 7.59889 37.351 6.57696 37.351 5.36924C37.351 4.56409 37.5314 3.83642 37.8921 3.18607C38.2528 2.53572 38.7638 2.02483 39.4252 1.63775C40.0866 1.25067 40.8081 1.06488 41.5746 1.06488C42.281 1.06488 42.9274 1.20419 43.5286 1.49845C44.0998 1.77721 44.5808 2.17979 45.0016 2.72167V1.35914C44.701 1.11137 44.3853 0.801768 44.0246 0.631472C43.2881 0.259888 42.4764 0.0740967 41.5596 0.0740967C40.0566 0.0740967 38.8089 0.569644 37.8019 1.57593C36.8098 2.58236 36.2988 3.80558 36.2988 5.27642C36.2988 6.66993 36.7047 7.86216 37.5314 8.8376C38.5084 9.99884 39.8612 10.5872 41.5596 10.5872C42.4463 10.5872 43.258 10.4169 43.9945 10.0608C44.3552 9.89052 44.6858 9.59626 44.9865 9.34865V8.06345H45.0017Z" fill="#FF6E41"/>
<path d="M3.69755 4.82728C1.38284 4.33174 0.946914 3.71253 0.946914 2.73694V2.70594C0.946914 1.66852 1.90887 0.925351 3.2165 0.925351C4.31369 0.925351 5.20058 1.26594 6.05724 2.0246L6.13246 2.10208L6.1475 2.07109V0.909855C5.26075 0.305994 4.37386 0.0427246 3.23154 0.0427246C1.38284 0.0427246 0 1.21946 0 2.78327V2.81426C0 4.39356 0.976999 5.2452 3.36692 5.74059C5.60643 6.20515 6.04235 6.80901 6.04235 7.76896V7.79995C6.04235 8.9147 5.06535 9.68901 3.68251 9.68901C2.32976 9.68901 1.3678 9.28644 0.270611 8.23352L0.1954 8.15604L0.180357 8.17153V9.37926C1.24746 10.1999 2.32976 10.5715 3.65243 10.5715C5.60643 10.5715 6.97423 9.41025 6.97423 7.73797V7.70698C6.97423 6.17431 5.99723 5.30734 3.69755 4.82728Z" fill="#FF6E41"/>
<path d="M59.6714 0.0429541L57.3417 7.19632L57.2966 7.35112L57.2514 7.19632L54.9518 0.0119629H53.088L50.7883 7.19632L50.7432 7.35112L50.683 7.19632L48.3533 0.0429541H46.0386L49.7211 10.6027H51.63L53.9296 3.71261L53.9898 3.57315L54.0349 3.71261L56.3496 10.6027H58.2435L61.926 0.0429541H59.6714Z" fill="#FF6E41"/>
<path d="M89.0605 2.39716C88.4189 2.39716 87.897 1.85947 87.897 1.19858C87.897 0.537696 88.4189 0 89.0605 0C89.702 0 90.224 0.537696 90.224 1.19858C90.224 1.85947 89.702 2.39716 89.0605 2.39716ZM89.0605 0.165183C88.5074 0.165183 88.0573 0.628809 88.0573 1.19858C88.0573 1.76835 88.5074 2.23198 89.0605 2.23198C89.6136 2.23198 90.0637 1.76835 90.0637 1.19858C90.0637 0.628809 89.6136 0.165183 89.0605 0.165183Z" fill="#FF6E41"/>
<path d="M88.5449 0.511288C88.5524 0.50261 88.5619 0.50447 88.5706 0.50447C88.7329 0.50447 88.8954 0.503075 89.0577 0.505244C89.098 0.505709 89.1386 0.506329 89.179 0.510203C89.2469 0.516556 89.3143 0.527403 89.3784 0.553746C89.439 0.578538 89.4923 0.613868 89.5294 0.670427C89.5523 0.705292 89.5684 0.744031 89.5753 0.785404C89.5892 0.86939 89.5908 0.953066 89.5634 1.03504C89.5398 1.10539 89.4953 1.15807 89.4345 1.19712C89.4044 1.21633 89.3724 1.23044 89.3363 1.24268C89.35 1.24826 89.3619 1.25228 89.3732 1.25771C89.4121 1.27646 89.4455 1.30327 89.4726 1.33736C89.5296 1.40894 89.5686 1.49154 89.6057 1.57506C89.614 1.59365 89.6232 1.61178 89.6319 1.63007C89.6693 1.70739 89.7068 1.78456 89.7441 1.86188C89.748 1.87009 89.7516 1.87846 89.7548 1.88574C89.7537 1.88822 89.7534 1.889 89.753 1.88977C89.7524 1.89039 89.7516 1.89132 89.7509 1.89132C89.6364 1.89473 89.5219 1.89194 89.4075 1.89272C89.4011 1.89272 89.3948 1.89349 89.3882 1.88977C89.3805 1.88373 89.378 1.8735 89.3736 1.86451C89.3179 1.74985 89.2629 1.63502 89.2069 1.52067C89.1899 1.4858 89.1695 1.45311 89.1423 1.42537C89.1137 1.39624 89.0789 1.38152 89.0397 1.37408C88.993 1.3654 88.9464 1.37114 88.9004 1.36912C88.8921 1.37919 88.8954 1.38989 88.8953 1.39965C88.8951 1.55104 88.8951 1.70259 88.895 1.85398C88.895 1.86498 88.8968 1.87629 88.8933 1.88466C88.8874 1.89272 88.881 1.89272 88.8746 1.89272C88.7683 1.89272 88.6618 1.89256 88.5555 1.89256C88.5529 1.89256 88.5502 1.89163 88.5481 1.89117C88.547 1.89024 88.5464 1.88962 88.5458 1.88884C88.5452 1.88822 88.5445 1.88745 88.5443 1.88667C88.5437 1.88202 88.543 1.87753 88.543 1.87288C88.543 1.42134 88.5431 0.969801 88.5433 0.518261C88.543 0.515936 88.5443 0.513302 88.5449 0.511288ZM88.896 1.11608C88.9044 1.1167 88.9105 1.11763 88.9166 1.11763C88.9645 1.11763 89.0123 1.11701 89.06 1.11778C89.0809 1.11809 89.1015 1.11577 89.1213 1.1105C89.1744 1.09671 89.2142 1.06665 89.2286 1.00885C89.2396 0.964842 89.2394 0.920215 89.2283 0.876983C89.2182 0.838089 89.1961 0.806943 89.158 0.790517C89.1329 0.77967 89.1069 0.772853 89.0797 0.772543C89.0246 0.771923 88.9697 0.772078 88.9147 0.772078C88.9086 0.772078 88.9019 0.770528 88.896 0.777501V1.11608Z" fill="#FF6E41"/>
</svg>
