<svg width="54" height="12" viewBox="0 0 54 12" fill="none" xmlns="http://www.w3.org/2000/svg">
<path fill-rule="evenodd" clip-rule="evenodd" d="M43.4768 3.59848C43.6809 3.95068 43.7477 4.35132 43.7697 4.80176L43.7987 5.40214V9.60041L43.8283 10.2014C43.8875 11.1829 44.6114 11.9087 45.6005 11.9704L46.1984 12V5.40214L46.228 4.80176C46.2525 4.35639 46.3187 3.94812 46.526 3.59346C46.7372 3.22965 47.0403 2.92784 47.4051 2.71828C47.7698 2.50872 48.1833 2.39881 48.6039 2.39957C49.0246 2.40033 49.4377 2.51177 49.8017 2.72264C50.1656 2.93352 50.4677 3.23646 50.6775 3.60099C50.8817 3.95319 50.9453 4.36141 50.9699 4.80176L50.9995 5.40029V9.60041L51.0291 10.2014C51.0908 11.188 51.809 11.9137 52.8013 11.9704L53.3991 12V4.80176C53.3991 3.52894 52.8936 2.30821 51.9937 1.40799C51.0939 0.507767 49.8733 0.00174704 48.6005 0.00125613C47.9192 0.000547034 47.2456 0.145202 46.6248 0.425621C46.0039 0.70604 45.45 1.11568 45.0001 1.62726C44.55 1.11589 43.9961 0.706312 43.3753 0.425839C42.7544 0.145365 42.0809 0.000383103 41.3997 0.00065583C40.4031 0.00065583 39.4782 0.303002 38.7122 0.825276C38.2447 0.303656 37.1989 0.00065583 36.5986 0.00065583V12L37.1989 11.9704C38.2032 11.9042 38.9289 11.198 38.968 10.2014L39.0001 9.60041V5.40214L39.0297 4.80176C39.0549 4.34881 39.1179 3.95068 39.3226 3.59597C39.534 3.23243 39.8371 2.93063 40.2016 2.72084C40.566 2.51101 40.9792 2.4005 41.3997 2.40028C41.8206 2.40033 42.234 2.51112 42.5986 2.72144C42.9632 2.93172 43.266 3.23423 43.4768 3.59848ZM2.39963 11.9711L3.00001 12H11.9994L11.9698 11.4016C11.8885 10.415 11.1899 9.69428 10.2001 9.63002L9.59975 9.60041H4.20077L11.399 2.39963L11.3694 1.80175C11.3228 0.805149 10.5945 0.0850379 9.59975 0.0302196L8.99937 0.00316521L0 0.00065583L0.0296095 0.601039C0.108358 1.57811 0.817093 2.31393 1.79862 2.37066L2.39963 2.40028H7.79866L0.600378 9.60101L0.629991 10.2014C0.689205 11.1905 1.40298 11.9068 2.39963 11.9704V11.9711ZM34.2431 1.75702C34.8003 2.31415 35.2423 2.97557 35.5439 3.70354C35.8454 4.4315 36.0007 5.21172 36.0007 5.99969C36.0007 6.78765 35.8454 7.56787 35.5439 8.29584C35.2423 9.0238 34.8003 9.68522 34.2431 10.2424C33.1172 11.3672 31.5909 11.9991 29.9994 11.9991C28.408 11.9991 26.8816 11.3672 25.7558 10.2424C23.4129 7.89946 23.4129 4.09998 25.7558 1.75702C26.3126 1.20011 26.9735 0.758294 27.701 0.45682C28.4285 0.155347 29.2082 0.000110526 29.9957 1.43495e-06C30.7844 -0.000544021 31.5655 0.15442 32.2943 0.456003C33.0232 0.757585 33.6853 1.19995 34.2431 1.75768V1.75702ZM32.5452 3.45612C33.2201 4.1315 33.5992 5.04716 33.5992 6.00192C33.5992 6.95664 33.2201 7.87235 32.5452 8.54768C31.8698 9.22257 30.9542 9.6016 29.9994 9.6016C29.0447 9.6016 28.129 9.22257 27.4537 8.54768C26.7788 7.87235 26.3997 6.95664 26.3997 6.00192C26.3997 5.04716 26.7788 4.1315 27.4537 3.45612C28.129 2.78128 29.0447 2.40219 29.9994 2.40219C30.9542 2.40219 31.8698 2.78128 32.5452 3.45612ZM17.4034 1.43495e-06C18.191 0.000219617 18.9707 0.155511 19.6982 0.457148C20.4256 0.758731 21.0866 1.20066 21.6433 1.75768C23.9868 4.09997 23.9868 7.90006 21.6433 10.2424C20.5175 11.3672 18.9911 11.9991 17.3997 11.9991C15.8082 11.9991 14.2818 11.3672 13.1561 10.2424C10.8131 7.89946 10.8131 4.09998 13.1561 1.75702C13.7128 1.20011 14.3737 0.758294 15.1012 0.45682C15.8287 0.155347 16.6084 0.000110526 17.3959 1.43495e-06H17.4034ZM19.9455 3.45486C20.6205 4.13025 20.9997 5.04607 20.9997 6.00094C20.9997 6.95587 20.6205 7.87169 19.9455 8.54708C19.2701 9.22191 18.3544 9.60101 17.3997 9.60101C16.4449 9.60101 15.5292 9.22191 14.8539 8.54708C14.179 7.87169 13.7999 6.95604 13.7999 6.00127C13.7999 5.04656 14.179 4.13085 14.8539 3.45546C15.5292 2.78063 16.4449 2.40153 17.3997 2.40153C18.3544 2.40153 19.2701 2.78063 19.9455 3.45546V3.45486Z" fill="#2D8CFF"/>
</svg>
