<?xml version="1.0" encoding="UTF-8" standalone="no"?><!DOCTYPE svg PUBLIC "-//W3C//DTD SVG 1.1//EN" "http://www.w3.org/Graphics/SVG/1.1/DTD/svg11.dtd"><svg width="100%" height="100%" viewBox="0 0 1839 539" version="1.1" xmlns="http://www.w3.org/2000/svg" xmlns:xlink="http://www.w3.org/1999/xlink" xml:space="preserve" xmlns:serif="http://www.serif.com/" style="fill-rule:evenodd;clip-rule:evenodd;stroke-linejoin:round;stroke-miterlimit:2;"><rect id="Artboard1" x="-320.825" y="-257.353" width="2480.32" height="1053.04" style="fill:none;"/><g><path d="M236.685,356.466c0,-38.244 -16.572,-56.94 -45.042,-67.989c22.521,-11.048 34.844,-29.32 34.844,-59.914c-0,-51.417 -36.119,-73.088 -90.51,-73.088l-106.232,-0c-16.572,-0 -29.745,14.447 -29.745,31.02l0,257.931l131.303,0c62.464,0 105.382,-28.045 105.382,-87.96Zm-69.688,-120.255c-0,24.221 -19.122,31.445 -42.493,31.445l-66.289,-0l0,-62.04l65.439,0c26.771,0 43.343,6.374 43.343,30.595Zm7.224,118.555c-0,28.895 -17.847,37.394 -47.167,37.394l-68.839,-0l0,-75.637l67.989,-0c30.595,-0 48.017,8.498 48.017,38.243Z"/><path d="M263.881,444.426l57.365,0l-0,-116.855c-0,-32.72 15.722,-49.292 47.167,-49.292l19.122,0l-0,-58.64l-8.074,0c-75.212,0 -113.881,36.119 -115.58,108.782l-0,116.005Z"/><path d="M422.379,155.475l-0,44.192l56.515,0l0,-16.572c0.425,-18.272 -8.498,-27.62 -27.195,-27.62l-29.32,-0Z" style="fill:#7864ff;"/><path d="M422.379,219.639l-0,224.787l56.515,0l0,-197.592c0,-18.271 -8.923,-27.195 -27.195,-27.195l-29.32,0Z"/><path d="M614.447,266.806c30.594,0 46.317,21.246 47.591,64.589c0,45.468 -16.147,68.414 -48.441,68.414c-32.295,-0 -47.592,-22.946 -47.167,-68.414c1.699,-43.343 17.422,-64.589 48.017,-64.589Zm75.637,-111.331l-28.046,-0l0,95.609c-14.447,-23.371 -36.118,-34.844 -64.164,-34.844c-59.915,2.124 -89.66,41.218 -89.66,117.705c0,74.787 34.845,112.606 104.533,113.881c70.113,0.425 105.382,-33.145 105.382,-100.708l0,-163.173c0,-15.297 -12.748,-28.47 -28.045,-28.47Z"/><path d="M845.608,398.959c-30.595,-0 -45.893,-21.672 -47.167,-65.014c-0,-45.468 15.722,-67.989 48.016,-67.989c32.295,0 48.017,22.521 47.592,67.989c-1.699,43.342 -17.847,65.014 -48.441,65.014Zm-15.723,49.716c28.045,0 49.717,-11.048 64.164,-33.144c0,23.371 0,22.946 0,22.946c0,34.844 -15.297,52.266 -45.042,52.266c-23.371,0 -36.544,-7.648 -40.368,-23.796l-62.465,0c13.173,47.592 45.468,71.388 96.459,71.388c71.813,-1.274 107.507,-29.745 107.507,-86.26l-0,-133.003c-0,-67.563 -35.269,-100.708 -105.382,-100.283c-69.689,1.275 -104.533,38.669 -104.533,113.456c0,77.337 29.745,116.43 89.66,116.43Z"/><path d="M1033,504.341c0,18.697 -9.348,28.045 -28.045,28.045l-28.47,0l-0,-215.013c2.974,-67.139 37.818,-100.284 105.382,-100.284c69.688,0 104.532,37.819 104.532,113.456c0,76.487 -29.745,116.006 -89.66,118.13c-28.045,0 -49.291,-11.473 -63.739,-34.844l0,90.51Zm48.017,-106.232c30.595,-0 46.317,-21.671 47.592,-65.014c-0,-45.467 -16.147,-67.989 -48.442,-67.989c-32.294,0 -47.592,22.522 -47.167,67.989c1.7,43.343 17.422,65.014 48.017,65.014Z"/><path d="M1313.03,216.24c-67.989,-0 -101.983,38.668 -101.983,116.855c0,77.337 33.994,116.43 101.983,116.43c67.988,0 102.408,-39.093 102.408,-116.43c-0,-78.187 -34.42,-116.855 -102.408,-116.855Zm-0,49.716c28.895,0 43.343,21.672 43.343,65.439c-0.425,44.618 -14.873,67.564 -43.768,67.564c-28.895,-0 -43.768,-22.096 -44.193,-65.864c0,-44.618 14.873,-67.139 44.618,-67.139Z"/><path d="M1442.63,155.475l0,44.192l56.516,0l-0,-16.572c0.424,-18.272 -8.499,-27.62 -27.196,-27.62l-29.32,-0Z" style="fill:#7864ff;"/><path d="M1442.63,219.639l0,224.787l56.516,0l-0,-197.592c-0,-18.271 -8.924,-27.195 -27.196,-27.195l-29.32,0Z"/><path d="M1722.66,444.426l-0,-132.153c0.425,-64.164 -31.02,-96.033 -95.184,-96.033c-64.164,-0 -96.459,31.869 -96.459,96.033l0,132.153l57.365,0l0,-143.626c0.425,-23.371 13.173,-34.844 38.244,-34.844c25.071,0 37.819,11.473 39.093,34.844l0,115.581c0,17.847 9.349,26.77 28.046,28.045l28.895,0Z"/><path d="M1838.66,231.962l0,-12.323l-33.994,0l0,-35.694c0,-14.872 -12.323,-28.47 -27.195,-28.47l-29.32,-0l-0,245.608c-0.425,25.071 9.773,38.244 31.019,40.369c21.247,2.124 41.218,2.124 59.49,0.425l0,-42.918l-17.422,-0c-11.048,-0 -16.572,-5.099 -16.572,-14.448l0,-124.504l5.949,0c15.722,0 28.045,-11.898 28.045,-28.045Z"/><path d="M462.027,136.613c-5.514,1.994 -11.609,-0.863 -13.604,-6.376c-1.994,-5.514 0.863,-11.609 6.377,-13.603c20.92,-7.567 466.868,-259.728 1004.82,1.734c5.274,2.563 7.474,8.925 4.911,14.198c-2.563,5.273 -8.925,7.474 -14.198,4.911c-529.107,-257.165 -967.726,-8.306 -988.302,-0.864Z" style="fill:#7864ff;"/></g></svg>
